<?xml version="1.0" encoding="utf-8"?>
<!-- Generator: Adobe Illustrator 27.5.0, SVG Export Plug-In . SVG Version: 6.00 Build 0)  -->
<svg version="1.1" xmlns="http://www.w3.org/2000/svg" xmlns:xlink="http://www.w3.org/1999/xlink" x="0px" y="0px"
	 viewBox="0 0 700 500" style="enable-background:new 0 0 700 500;" xml:space="preserve">
<g id="BACKGROUND">
	<rect style="fill:#FFFFFF;" width="700" height="500"/>
</g>
<g id="OBJECTS">
	<g>
		<path style="opacity:0.54;fill:#F9C0D5;" d="M398.65,388.076c25.069-59.459,88.907-83.973,139.323-118.07
			c20.082-13.582,43.228-27.497,53.626-50.729c9.385-20.969,10.744-45.848,4.679-67.559c-9.81-35.117-39.707-61.489-73.522-74.388
			c-20.619-7.865-43.384-10.341-65.501-7.469c-40.835,5.304-78.804,24.867-110.963,49.811
			c-29.992,23.263-76.754,58.971-82.178,98.606c-5.819,42.523-27.384,71.751-56.418,103.602
			c-23.288,25.549-50.971,60.464-25.321,93.725c15.939,20.669,34.815,18.766,58.278,13.28c20.678-4.835,40.934-11.537,60.427-19.997
			c13.856-6.014,37.033-11.062,50.922-2.276c5.335,3.374,10.514,7.343,16.739,8.712c6.368,1.401,13.417-0.239,18.559-4.319
			C394.533,405.266,395.316,395.983,398.65,388.076z"/>
		<path style="opacity:0.54;fill:#F9C0D5;" d="M231.38,225.577c4.39,7.914,1.385,17.836-6.71,22.16
			c-8.096,4.324-18.217,1.414-22.607-6.5c-4.39-7.914-1.386-17.836,6.71-22.16C216.868,214.752,226.99,217.662,231.38,225.577z"/>
		
			<ellipse transform="matrix(0.9971 -0.0762 0.0762 0.9971 -26.5729 41.4212)" style="opacity:0.54;fill:#F9C0D5;" cx="529.482" cy="368.913" rx="32.575" ry="31.894"/>
		<path style="opacity:0.54;fill:#F9C0D5;" d="M548.431,424.375c3.435,6.193,1.084,13.956-5.251,17.34
			c-6.334,3.384-14.254,1.107-17.689-5.086c-3.435-6.193-1.084-13.956,5.25-17.339C537.076,415.905,544.996,418.182,548.431,424.375
			z"/>
		
			<ellipse transform="matrix(0.9971 -0.0762 0.0762 0.9971 -21.1603 42.4177)" style="opacity:0.54;fill:#F9C0D5;" cx="545.241" cy="298.483" rx="17.96" ry="17.584"/>
	</g>
	<g>
		<text transform="matrix(1 0 0 1 28.6693 84.1805)"><tspan x="0" y="0" style="fill:#0070A8; font-family:'BebasNeueBold'; font-size:78.4686px;">Oily </tspan><tspan x="119.74" y="0" style="fill:#B3D2DC; font-family:'BebasNeueBold'; font-size:78.4686px;">skin</tspan><tspan x="0" y="66.127" style="fill:#FF92B5; font-family:'BebasNeueBold'; font-size:78.4686px;">problems</tspan></text>
		<text transform="matrix(1 0 0 1 30.3231 84.1805)"><tspan x="0" y="0" style="fill:none;stroke:#080C3E;stroke-width:0.6199;stroke-linecap:round;stroke-linejoin:round;stroke-miterlimit:10; font-family:'BebasNeueBold'; font-size:78.4686px;">Oily skin</tspan><tspan x="0" y="66.127" style="fill:none;stroke:#080C3E;stroke-width:0.6199;stroke-linecap:round;stroke-linejoin:round;stroke-miterlimit:10; font-family:'BebasNeueBold'; font-size:78.4686px;">problems</tspan></text>
	</g>
	<g>
		<g>
			<defs>
				<rect id="SVGID_1_" x="170.347" y="8.333" width="434" height="491.667"/>
			</defs>
			<clipPath id="SVGID_00000128462913532205204190000001803851774050315687_">
				<use xlink:href="#SVGID_1_"  style="overflow:visible;"/>
			</clipPath>
			<g style="clip-path:url(#SVGID_00000128462913532205204190000001803851774050315687_);">
				<g>
					<g>
						<g>
							<g>
								<g>
									<g>
										<path style="fill:#89525C;" d="M319.706,330.939l-23.431,114.103c0,0,5.448,33.095,22.66,21.598
											c0,0,50.002-91.764,56.598-131.79c0,0,11.417-35.807-21.016-37.461C322.084,295.735,319.706,330.939,319.706,330.939z"/>
										
											<linearGradient id="SVGID_00000109020523789208663990000010149130808570223548_" gradientUnits="userSpaceOnUse" x1="819.7549" y1="458.9614" x2="913.364" y2="458.9614" gradientTransform="matrix(-0.9888 0.149 0.149 0.9888 1125.3904 -208.8239)">
											<stop  offset="0" style="stop-color:#663535"/>
											<stop  offset="1" style="stop-color:#663535;stop-opacity:0"/>
										</linearGradient>
										<path style="opacity:0.36;fill:url(#SVGID_00000109020523789208663990000010149130808570223548_);" d="M329.997,420.652
											c-0.074-2.489-0.123-4.932-0.074-7.295c0.552-26.538,0.158-54.611,7.267-80.391c3.659-13.268,6.767-26.58,17.327-35.577
											c24.72-21.061,21.016,37.461,21.016,37.461c-5.033,30.542-35.319,91.168-49.398,118.201
											C331.131,443.455,330.323,431.62,329.997,420.652z"/>
										
											<path style="fill:none;stroke:#080C3E;stroke-width:1.0199;stroke-linecap:round;stroke-linejoin:round;stroke-miterlimit:10;" d="
											M333.056,303.074c0,0-13.61,7.981-19.16,56.246l-12.862,67.902"/>
										<g>
											<g>
												<path style="fill:#89525C;" d="M305.203,467.366c0,0-27.16-7.001-77.634-128.594l17.232-8.408
													c0,0,74.937,95.763,77.169,110.999C321.97,441.363,327.374,453.216,305.203,467.366z"/>
											</g>
											<g>
												<path style="fill:#89525C;" d="M303.678,409.316c10.592,15.334,21.358,25.67,22.051,30.403
													c0,0,8.584,24.586-19.606,28.424c0,0-11.028-1.625-33.37-38.193C285.888,426.191,299.022,420.219,303.678,409.316z"/>
											</g>
											
												<line style="fill:none;stroke:#080C3E;stroke-width:0.9822;stroke-linecap:round;stroke-linejoin:round;stroke-miterlimit:10;" x1="306.68" y1="414.134" x2="301.034" y2="406.971"/>
											
												<line style="fill:none;stroke:#080C3E;stroke-width:0.9822;stroke-linecap:round;stroke-linejoin:round;stroke-miterlimit:10;" x1="300.068" y1="404.096" x2="251.367" y2="338.499"/>
											
												<path style="fill:none;stroke:#080C3E;stroke-width:0.9822;stroke-linecap:round;stroke-linejoin:round;stroke-miterlimit:10;" d="
												M263.771,414.134c0,0-28.848-54.496-34.654-73.718"/>
											
												<path style="fill:none;stroke:#080C3E;stroke-width:0.9822;stroke-linecap:round;stroke-linejoin:round;stroke-miterlimit:10;" d="
												M265.192,418.057c0,0,20.881,37.734,37.352,47.965c0,0,10.751,6.63,21.812-7.697l20.177-43.883"/>
											<g>
												<g>
													<path style="fill:#89525C;" d="M247.972,333.534c0,0-1.302-4.592-1.338-6.125c-0.036-1.531-1.355-7.501-1.3-8.362
														c0.054-0.861,0.893-7.293-0.476-9.84c0,0,2.343-9.196,3.168-10.674c0.825-1.478,4.206-5.52,3.05-7.755
														c0,0-1.963-3.15-4.465-1.446c0,0-4.524,3.173-4.922,5.276c0,0-1.723,6.209-2.661,6.849c0,0-4.074,3.966-11.208-2.072
														c0,0-13.144-8.811-14.064-10.565c0,0-8.19-15.116-11.254-15.043c0,0-6.05,0.305-2.383,5.957c0,0,6,9.436,6.349,10.754
														c0,0,7.656,9.895,8.417,10.475c0,0-0.054,0.861-1.252,0.852c0,0-12.931-8.499-14.118-9.704
														c0,0-1.941-9.301-4.791-8.915c0,0-1.745-0.276-2.638,0.698c0,0-3.971-6.635-7.878-2.692c0,0-1.36,2.574,1.732,5.23
														c0,0,6.477,7.492,6.826,8.811c0,0,1.16,4.795,0.83,7.402l3.721,4.79c0,0,0.788,3.309,0.612,4.528
														c0,0,7.923,9.346,9.033,11.245c0,0,18.878,13.33,21.429,14.522c0,0,0.979,3.453,0.947,4.483L247.972,333.534z"/>
													
														<path style="fill:none;stroke:#080C3E;stroke-width:0.9726;stroke-linecap:round;stroke-linejoin:round;stroke-miterlimit:10;" d="
														M241.201,324.273c0,0,4.209-5.919,4.221-7.515c0.012-1.595-0.601-6.977-0.834-7.856
														c-0.233-0.879,1.439-4.521,1.643-6.37"/>
													
														<path style="fill:none;stroke:#080C3E;stroke-width:0.9726;stroke-linecap:round;stroke-linejoin:round;stroke-miterlimit:10;" d="
														M247.099,299.683c0,0,3.314-5.799,3.961-6.91c0.647-1.112-1.514-4.463-2.885-4.505c0,0-4.657,1.768-6.478,4.29
														c0,0-0.994,2.753-1.408,4.744c-0.414,1.991-1.617,4.886-3.091,5.768"/>
													<path style="fill:none;" d="M247.313,298.743"/>
													
														<path style="fill:none;stroke:#080C3E;stroke-width:0.9726;stroke-linecap:round;stroke-linejoin:round;stroke-miterlimit:10;" d="
														M240.889,295.855c0,0,0.77,1.49,1.136,1.668"/>
													
														<path style="fill:none;stroke:#080C3E;stroke-width:0.9726;stroke-linecap:round;stroke-linejoin:round;stroke-miterlimit:10;" d="
														M235.601,303.058c0,0-5.227-0.774-8.633-4.07c-3.405-3.297-11.407-8.59-12.026-8.962
														c-0.619-0.371-7.446-11.289-8.364-12.189c-0.919-0.9-3.829-6.427-7.506-3.311c0,0-1.711,2.508,1.121,5.768
														c0,0,5.318,9.868,5.871,10.59c0.553,0.722,6.049,6.013,6.349,6.542"/>
													
														<line style="fill:none;stroke:#080C3E;stroke-width:0.9726;stroke-linecap:round;stroke-linejoin:round;stroke-miterlimit:10;" x1="209.748" y1="299.608" x2="198.843" y2="292.202"/>
													
														<path style="fill:none;stroke:#080C3E;stroke-width:0.9726;stroke-linecap:round;stroke-linejoin:round;stroke-miterlimit:10;" d="
														M199.033,294.453l-2.387-9.24c0,0-1.048-2.704-3.463-2.037c0,0-3.527,0.021-1.016,7.651c0,0,1.62,9.458,1.486,10.158
														l-0.094,1.834c0,0,0.704,1.84,3.587,4.638"/>
													
														<path style="fill:none;stroke:#080C3E;stroke-width:0.9726;stroke-linecap:round;stroke-linejoin:round;stroke-miterlimit:10;" d="
														M191.059,283.463c0,0-2.774-4.521-6.231-3.142c0,0-3.523,1.729-0.184,5.375c0,0,7.687,8.866,7.981,10.192"/>
													
														<path style="fill:none;stroke:#080C3E;stroke-width:0.9726;stroke-linecap:round;stroke-linejoin:round;stroke-miterlimit:10;" d="
														M201.13,316.71l-3.385-3.983c0,0-0.622-2.079-0.326-3.258c0,0-0.281-11.346-0.417-12.352c0,0,0.218-3.444,3.478-2.064
														c0,0,2.329,2.076,2.75,7.711l0.405,5.523l4.469,6.113"/>
													
														<path style="fill:none;stroke:#080C3E;stroke-width:0.9726;stroke-linecap:round;stroke-linejoin:round;stroke-miterlimit:10;" d="
														M204.448,304.195l3.913,3.683c0,0,1.617-0.674,1.967-0.608"/>
													
														<polyline style="fill:none;stroke:#080C3E;stroke-width:0.9726;stroke-linecap:round;stroke-linejoin:round;stroke-miterlimit:10;" points="
														211.51,300.849 214.033,302.672 215.873,301.967 													"/>
													
														<path style="fill:none;stroke:#080C3E;stroke-width:0.9726;stroke-linecap:round;stroke-linejoin:round;stroke-miterlimit:10;" d="
														M213.601,298.632c0,0,0.943,1.922,0.952,2.832"/>
													
														<path style="fill:none;stroke:#080C3E;stroke-width:0.9726;stroke-linecap:round;stroke-linejoin:round;stroke-miterlimit:10;" d="
														M203.043,319.07l3.46,4.542c0,0,6.554,4.692,8.107,6.076c1.553,1.384,12.002,7.941,12.733,8.298
														c0,0,3.952,0.605,8.406-1.819c0,0,2.363-4.418,2.541-4.784"/>
													
														<path style="fill:none;stroke:#080C3E;stroke-width:0.9726;stroke-linecap:round;stroke-linejoin:round;stroke-miterlimit:10;" d="
														M244.784,318.78c0.157,0.321,1.082,4.635,1.233,5.753c0.151,1.118,0.876,6.484,0.876,6.484l0.683,2.526l2.553,3.263"/>
													
														<path style="fill:none;stroke:#080C3E;stroke-width:0.9726;stroke-linecap:round;stroke-linejoin:round;stroke-miterlimit:10;" d="
														M199.722,313.03c0,0,1.87-0.48,2.689-1.161"/>
													
														<path style="fill:none;stroke:#080C3E;stroke-width:0.9726;stroke-linecap:round;stroke-linejoin:round;stroke-miterlimit:10;" d="
														M203.058,302.333c0,0-1.049,1.508-2.197,1.435"/>
													
														<path style="fill:none;stroke:#080C3E;stroke-width:0.9726;stroke-linecap:round;stroke-linejoin:round;stroke-miterlimit:10;" d="
														M187.998,289.455c0,0,1.438-0.309,1.825-0.817"/>
													
														<path style="fill:none;stroke:#080C3E;stroke-width:0.9726;stroke-linecap:round;stroke-linejoin:round;stroke-miterlimit:10;" d="
														M208.095,292.431c0,0,2.668-0.475,3.136-1.221"/>
													
														<path style="fill:none;stroke:#080C3E;stroke-width:0.9726;stroke-linecap:round;stroke-linejoin:round;stroke-miterlimit:10;" d="
														M207.932,280.272c0,0-0.429,1.879-1.197,2.097"/>
													
														<path style="fill:none;stroke:#080C3E;stroke-width:0.9726;stroke-linecap:round;stroke-linejoin:round;stroke-miterlimit:10;" d="
														M244.258,308.15c0,0-1.928-2.471-2.852-2.574"/>
												</g>
											</g>
										</g>
									</g>
									<g>
										<path style="fill:#89525C;" d="M460.538,299.626c-5.578-2.516-25.249-14.165-30.916-15.172
											c-4.665-18.085,18.702-43.626,18.702-43.626l-54.471,27.652c2.064,11.586-0.447,18.961-0.447,18.961l-23.078,2.805
											c0,0-19.762,32.209,16.731,31.285c10.365-0.262,19.319-3.259,26.901-7.357
											C428.463,311.849,460.538,299.626,460.538,299.626z"/>
										<g>
											
												<linearGradient id="SVGID_00000078751242670481087140000002834373236390322107_" gradientUnits="userSpaceOnUse" x1="-697.1094" y1="327.9713" x2="-649.4816" y2="327.9713" gradientTransform="matrix(0.9652 0.2611 -0.2611 0.9652 1152.3998 121.0768)">
												<stop  offset="0" style="stop-color:#DB815A"/>
												<stop  offset="1" style="stop-color:#DB815A;stop-opacity:0"/>
											</linearGradient>
											<path style="opacity:0.63;fill:url(#SVGID_00000078751242670481087140000002834373236390322107_);" d="M394.562,280.487
												c7.258,0.963,21.402,1.487,35.587-11.341c7.191-6.504,11.842-15.225,15.962-24.099l-53.409,15.064
												C393.15,267.898,395.739,276.25,394.562,280.487z"/>
											
												<path style="fill:none;stroke:#080C3E;stroke-width:1.0199;stroke-linecap:round;stroke-linejoin:round;stroke-miterlimit:10;" d="
												M443.164,249.676c0,0-7.81,6.538-13.68,24.271"/>
										</g>
									</g>
									<path style="fill:#89525C;" d="M434.567,286.033c-2.887,2.53,15.904,5.177,32.169,11.157
										c13.05,4.798,26.918,28.82,25.718,34.355c-1.199,5.535-4.87,32.403-14.762,36.62c-9.892,4.218-22.88,60.457-22.88,60.457
										c-8.6,11.116-17.963,62.186-12.94,70.438H321.25c0,0-2.848-65.28-2.991-84.619c0,0-27.187-19.009-1.427-57.88
										c0,0,10.982-7.062,20.769-51.493c2.436-11.061,1.928-12.063,52.896-18.258c0,0-9.872,6.981-12.281,16.669
										C375.807,313.169,395.86,330.076,434.567,286.033z"/>
									
										<line style="fill:none;stroke:#080C3E;stroke-width:1.0199;stroke-linecap:round;stroke-linejoin:round;stroke-miterlimit:10;" x1="458.994" y1="295.108" x2="429.622" y2="284.454"/>
									
										<path style="fill:none;stroke:#080C3E;stroke-width:1.0199;stroke-linecap:round;stroke-linejoin:round;stroke-miterlimit:10;" d="
										M333.83,320.596c-2.213,21.366-29.203,43.292-28.048,65.142"/>
									
										<path style="fill:none;stroke:#080C3E;stroke-width:1.0199;stroke-linecap:round;stroke-linejoin:round;stroke-miterlimit:10;" d="
										M387.039,287.407l-30.833,4.503c-7.698,1.124-14.96,4.269-21.046,9.114"/>
								</g>
							</g>
						</g>
					</g>
					<g>
						<g>
							<g>
								<path style="fill:#24181A;" d="M328.023,136.538c-0.415,14.117,10.693,25.898,24.811,26.313
									c14.117,0.415,25.897-10.693,26.312-24.811c0.415-14.117-10.693-25.898-24.81-26.312
									C340.218,111.313,328.438,122.421,328.023,136.538z"/>
								<path style="fill:#24181A;" d="M328.34,70.825c-0.476,16.204,12.274,29.727,28.479,30.203
									c16.204,0.476,29.727-12.274,30.203-28.479c0.476-16.204-12.275-29.727-28.479-30.203
									C342.338,41.87,328.816,54.62,328.34,70.825z"/>
								<path style="fill:#24181A;" d="M324.364,108.055c-0.285,9.717,7.361,17.826,17.078,18.111
									c9.717,0.285,17.826-7.361,18.111-17.078c0.285-9.717-7.361-17.826-17.078-18.111
									C332.758,90.692,324.649,98.338,324.364,108.055z"/>
								<path style="fill:#24181A;" d="M352.263,46.639c-0.33,11.218,8.497,20.579,19.716,20.909
									c11.218,0.33,20.579-8.497,20.909-19.716c0.329-11.218-8.498-20.579-19.716-20.909
									C361.953,26.593,352.592,35.42,352.263,46.639z"/>
								<path style="fill:#24181A;" d="M397.802,36.531c-0.372,12.655,9.586,23.215,22.241,23.587
									c12.655,0.372,23.215-9.586,23.587-22.241c0.372-12.655-9.586-23.215-22.241-23.587
									C408.734,13.919,398.174,23.876,397.802,36.531z"/>
								<path style="fill:#24181A;" d="M484.584,78.411c-0.372,12.655,9.586,23.215,22.241,23.587
									c12.655,0.372,23.215-9.586,23.587-22.241c0.372-12.655-9.586-23.215-22.241-23.587
									C495.516,55.798,484.956,65.756,484.584,78.411z"/>
								<path style="fill:#24181A;" d="M379.941,39.014c-0.231,7.854,5.949,14.409,13.804,14.639
									c7.854,0.231,14.409-5.949,14.64-13.804c0.231-7.854-5.95-14.409-13.804-14.64C386.726,24.979,380.172,31.16,379.941,39.014
									z"/>
								<path style="fill:#24181A;" d="M462.118,41.428c-0.147,5.006,3.792,9.184,8.799,9.331c5.006,0.147,9.184-3.792,9.331-8.798
									c0.147-5.006-3.792-9.184-8.798-9.331C466.443,32.482,462.266,36.422,462.118,41.428z"/>
								<path style="fill:#24181A;" d="M482.461,38.988c-3.756-0.11-6.891,2.845-7.001,6.602c-0.11,3.757,2.845,6.891,6.602,7.001
									c3.756,0.11,6.891-2.845,7.001-6.602C489.174,42.233,486.218,39.099,482.461,38.988z"/>
								<path style="fill:#24181A;" d="M540.491,112.738c-3.756-0.11-6.891,2.846-7.001,6.602c-0.11,3.757,2.845,6.891,6.602,7.001
									c3.756,0.11,6.891-2.845,7.001-6.602C547.204,115.983,544.248,112.849,540.491,112.738z"/>
								<path style="fill:#24181A;" d="M439.136,40.753c-0.231,7.854,5.95,14.409,13.804,14.639
									c7.854,0.231,14.409-5.95,14.639-13.804c0.231-7.854-5.949-14.409-13.804-14.639
									C445.921,26.718,439.367,32.898,439.136,40.753z"/>
								<path style="fill:#24181A;" d="M513.409,106.758c-0.231,7.854,5.949,14.409,13.804,14.64
									c7.854,0.231,14.409-5.95,14.639-13.804c0.231-7.854-5.949-14.409-13.804-14.639
									C520.194,92.724,513.64,98.904,513.409,106.758z"/>
								<path style="fill:#24181A;" d="M529.594,133.356c-0.231,7.854,5.949,14.409,13.804,14.639
									c7.854,0.231,14.409-5.949,14.639-13.804c0.231-7.854-5.949-14.409-13.804-14.639
									C536.379,119.321,529.824,125.502,529.594,133.356z"/>
								<path style="fill:#24181A;" d="M528.93,155.958c-0.231,7.854,5.95,14.409,13.804,14.639
									c7.854,0.231,14.409-5.95,14.639-13.804c0.231-7.854-5.949-14.409-13.804-14.639
									C535.715,141.923,529.161,148.103,528.93,155.958z"/>
								<path style="fill:#24181A;" d="M517.21,179.043c-0.231,7.854,5.95,14.409,13.804,14.639
									c7.854,0.231,14.409-5.95,14.639-13.804c0.231-7.854-5.949-14.409-13.804-14.639
									C523.996,165.008,517.441,171.188,517.21,179.043z"/>
								<path style="fill:#24181A;" d="M500.61,191.481c-0.188,6.389,4.84,11.721,11.229,11.909
									c6.39,0.188,11.722-4.84,11.909-11.23c0.188-6.389-4.84-11.721-11.23-11.909C506.13,180.064,500.798,185.092,500.61,191.481
									z"/>
								<path style="fill:#24181A;" d="M485.876,203.218c-0.188,6.389,4.84,11.722,11.229,11.909
									c6.39,0.188,11.722-4.84,11.909-11.23c0.188-6.389-4.84-11.721-11.23-11.909
									C491.395,191.801,486.063,196.829,485.876,203.218z"/>
								<path style="fill:#24181A;" d="M472.867,206.07c-0.188,6.389,4.84,11.721,11.229,11.909
									c6.39,0.188,11.722-4.84,11.909-11.229c0.188-6.389-4.84-11.722-11.23-11.909
									C478.387,194.653,473.055,199.68,472.867,206.07z"/>
								<path style="fill:#24181A;" d="M482.298,56.563c-0.231,7.854,5.95,14.409,13.804,14.639
									c7.854,0.231,14.409-5.949,14.639-13.804c0.231-7.854-5.949-14.409-13.804-14.64
									C489.083,42.528,482.529,48.708,482.298,56.563z"/>
							</g>
							<path style="fill:#24181A;" d="M360.068,147.464c0,0-12.205-42.908-12.158-44.522c0.048-1.614,6.915-33.728,6.915-33.728
								l32.714-31.894l39.838,0.632l29.566,1.946l25.318,5.893l15.866,22.247l14.863,25.751l24.771,18.501l2.122,19.452l0.381,23.71
								l-6.631,24.042l-16.524,12.441l-39.71,13.376l-15.796,5.999c0,0-91.057-35.529-103.419-54.743
								C345.823,137.351,360.068,147.464,360.068,147.464z"/>
							<path style="fill:#352327;" d="M495.041,70.915c-2.406,3.725,4.979,1.495,10.154,4.838c5.174,3.343,6.178,10.993,8.584,7.269
								c2.406-3.725,0.163-9.455-5.012-12.798C503.593,66.881,497.447,67.19,495.041,70.915z"/>
							<path style="fill:#352327;" d="M499.895,102.2c-4.249,1.268,2.814,4.372,4.577,10.274c1.762,5.903-2.445,12.372,1.804,11.103
								c4.25-1.268,6.266-7.082,4.504-12.985C509.018,104.689,504.144,100.931,499.895,102.2z"/>
							<path style="fill:#352327;" d="M472.729,123.725c-3.255,1.843,3.137,3.064,5.698,7.585c2.561,4.521,0.32,10.632,3.575,8.788
								c3.255-1.843,3.818-7.003,1.257-11.524C480.697,124.053,475.983,121.882,472.729,123.725z"/>
							<path style="fill:#352327;" d="M336.689,115.381c2.057,3.125,2.848-3.335,7.188-6.192c4.34-2.857,10.587-1.029,8.53-4.154
								c-2.057-3.125-7.242-3.342-11.583-0.484C336.484,107.408,334.633,112.257,336.689,115.381z"/>
							<path style="fill:#352327;" d="M537.958,126.453c-3.548,1.059,2.35,3.65,3.822,8.579c1.471,4.929-2.042,10.33,1.507,9.271
								c3.548-1.059,5.232-5.913,3.761-10.843C545.575,128.532,541.506,125.394,537.958,126.453z"/>
							<path style="fill:#352327;" d="M529.506,151.862c-3.523-1.138-0.133,4.339-1.714,9.234c-1.582,4.895-7.537,7.354-4.014,8.492
								c3.524,1.139,7.662-1.906,9.244-6.801C534.604,157.892,533.029,153,529.506,151.862z"/>
							<path style="fill:#352327;" d="M354.551,70.834c1.266,4.25,4.373-2.812,10.278-4.57c5.904-1.758,12.37,2.453,11.104-1.797
								c-1.266-4.251-7.078-6.271-12.982-4.512C357.045,61.713,353.285,66.583,354.551,70.834z"/>
							<path style="fill:#352327;" d="M395.318,51.475c-0.441,4.412,5.113-0.942,11.243-0.329c6.13,0.613,10.514,6.963,10.955,2.55
								c0.441-4.413-4.169-8.487-10.3-9.101C401.087,43.983,395.759,47.063,395.318,51.475z"/>
							<path style="fill:#352327;" d="M427.486,67.827c-2.822,6.286,7.999,1.128,16.731,5.047c8.732,3.92,12.07,15.434,14.89,9.148
								c2.822-6.286-1.969-14.559-10.701-18.479C439.674,59.624,430.307,61.541,427.486,67.827z"/>
							<path style="fill:#352327;" d="M382.337,99.333c-0.73,6.851,7.953-1.412,17.471-0.399
								c9.518,1.014,16.266,10.922,16.995,4.071c0.73-6.852-6.393-13.227-15.911-14.241
								C391.374,87.75,383.066,92.482,382.337,99.333z"/>
							<path style="fill:#352327;" d="M462.734,49.221c-1.88,2.91,3.889,1.168,7.931,3.779c4.042,2.611,4.826,8.587,6.705,5.677
								c1.88-2.91,0.127-7.385-3.915-9.996C469.413,46.07,464.613,46.312,462.734,49.221z"/>
							<path style="fill:#352327;" d="M417.509,25.523c-1.879,2.909,3.889,1.168,7.931,3.779c4.042,2.611,4.826,8.587,6.705,5.677
								c1.88-2.91,0.127-7.385-3.915-9.996C424.189,22.372,419.388,22.614,417.509,25.523z"/>
						</g>
						<g>
							<g>
								<path style="fill:#24181A;" d="M486.209,193.91c-5.602,28.153-22.076,53.726-50.278,63.033
									c-13.577,4.48-28.222,5.317-42.231,2.477c-44.702-9.064-67.744-58.534-58.681-103.237
									c7.651-37.733,40.017-62.132,77.809-60.452c22.708,1.008,44.138,12.533,58.622,29.867
									c7.432,8.894,13.071,19.322,16.151,30.511C491.425,170.001,488.949,180.138,486.209,193.91z"/>
								<path style="fill:#89525C;" d="M338.358,226.804c1.906,17.916,10.302,36.211,25.686,46.394
									c18.877,12.494,34.041,4.93,52.685-3.681c41.2-19.028,68.618-54.203,60.669-101.716
									c-15.129-90.427-151.524-67.138-144.015,17.617c0.847,9.565,4.406,19.43,4.374,29.103
									C337.744,218.708,337.934,222.81,338.358,226.804z"/>
								<g>
									<g>
										<path style="fill:#FFFFFF;" d="M407.156,207.405c0.953,7.619-3.854,9.359-8.298,9.915
											c-4.445,0.556-8.359,0.664-10.183-5.472c-2.188-7.36,1.878-14.247,6.323-14.803
											C399.442,196.49,406.204,199.785,407.156,207.405z"/>
										<path style="fill:#6D3A45;" d="M399.134,199.984c-3.035-0.142-5.604-1.404-8.635-1.433
											c1.208-1.798,3.167-4.814,5.155-4.788c3.59,0.046,5.543,2.303,7.901,5.852
											C402.382,199.031,400.557,200.052,399.134,199.984z"/>
										<path style="fill:#FFFFFF;" d="M355.529,205.107c0.772,6.175-1.181,8.37-4.614,8.8c-3.435,0.43-7.323-1.366-8.095-7.541
											c-0.772-6.176,1.939-10.123,5.373-10.553C351.626,195.384,354.757,198.932,355.529,205.107z"/>
										<g>
											<path style="fill:#24181A;" d="M392.89,201.249c1.128-0.271,2.322,0.212,3.399,1.182l-0.771,2.607l2.231-0.846
												c0.678,1.066,1.244,2.344,1.592,3.79c1.04,4.324-0.162,8.323-2.685,8.93c-2.522,0.606-5.412-2.408-6.451-6.733
												C389.164,205.854,390.367,201.856,392.89,201.249z"/>
										</g>
										<path style="fill:#24181A;" d="M350.636,205.843c-0.27-1.24-0.701-2.338-1.216-3.255l-1.667,0.707l0.561-2.226
											c-0.812-0.839-1.71-1.261-2.554-1.037c-1.886,0.5-2.762,3.913-1.956,7.622c0.807,3.709,2.91,5.615,4.796,5.115
											C350.487,212.269,351.443,209.551,350.636,205.843z"/>
									</g>
									<path style="fill:#6D3A45;" d="M348.731,197.3c-4.428,0.39-1.7,0.489-5.158,0.563c1.037-1.674,2.571-4.257,4.415-4.481
										c2.454-0.298,2.691,0.23,4.781,4.457C351.737,197.104,349.983,197.191,348.731,197.3z"/>
									<g>
										<path style="fill:#24181A;" d="M385.957,194.938c0.513,0.699,1.14,0.947,1.829,1.208c0.696,0.23,1.429,0.425,2.188,0.586
											c1.509,0.309,3.018,0.932,4.619,1.282c1.598,0.339,3.226,0.624,4.864,0.881c1.638,0.276,3.291,0.476,4.949,0.682
											c0.069,0.007,0.119,0.069,0.111,0.138c-0.006,0.059-0.054,0.104-0.11,0.111c-1.672,0.192-3.348,0.255-5.034,0.311
											c-1.684,0.031-3.374-0.009-5.071-0.153c-1.689-0.146-3.464-0.153-5.12-0.892c-0.819-0.363-1.64-0.808-2.348-1.477
											c-0.696-0.623-1.336-1.67-1.122-2.641c0.016-0.072,0.087-0.117,0.158-0.101c0.033,0.007,0.06,0.026,0.078,0.051
											L385.957,194.938z"/>
									</g>
									<g>
										<path style="fill:#24181A;" d="M354.196,197.765c-1.243,0.809-2.565,1.142-3.896,1.333
											c-1.338,0.203-2.684-0.151-4.015-0.377c-1.335-0.233-2.677-0.551-3.952-1.171c-0.626-0.32-1.252-0.719-1.721-1.308
											c-0.485-0.577-0.667-1.398-0.472-2.062c0.018-0.067,0.088-0.106,0.155-0.088c0.054,0.015,0.09,0.064,0.092,0.117
											c0.047,1.328,1.221,1.927,2.382,2.174c1.178,0.277,2.44,0.337,3.695,0.353c1.266,0.003,2.529-0.292,3.797-0.129
											c1.275,0.144,2.558,0.348,3.91,0.909c0.072,0.028,0.108,0.109,0.08,0.181C354.24,197.725,354.219,197.749,354.196,197.765
											z"/>
									</g>
									<g>
										<path style="fill:#24181A;" d="M393.71,179.938c0.362-0.029,0.519-0.015,0.755-0.016c0.227-0.001,0.411,0.022,0.618,0.034
											c0.41,0.02,0.787,0.083,1.172,0.135c0.759,0.129,1.506,0.267,2.216,0.495c1.445,0.391,2.785,0.999,4.069,1.663
											c2.556,1.367,4.734,3.214,6.596,5.243c1.912,2.006,3.351,4.32,4.712,6.618c0.615,1.186,1.2,2.382,1.774,3.574l1.472,3.671
											c0.189,0.472-0.04,1.007-0.512,1.197c-0.436,0.175-0.927-0.008-1.148-0.409l-0.034-0.061l-1.84-3.33
											c-0.685-1.06-1.373-2.112-2.077-3.142c-1.527-1.968-3.09-3.901-4.967-5.425c-1.833-1.558-3.841-2.853-5.974-3.667
											c-1.068-0.389-2.146-0.729-3.23-0.872c-0.537-0.106-1.078-0.126-1.597-0.151c-0.257,0-0.523-0.015-0.759,0.009
											c-0.116,0.01-0.254,0.008-0.349,0.026c-0.086,0.013-0.252,0.03-0.211,0.036c-1.554,0.19-2.968-0.916-3.158-2.47
											C391.05,181.541,392.156,180.128,393.71,179.938z"/>
									</g>
									<g>
										<path style="fill:#24181A;" d="M348.603,184.135c0.273,0.032,0.037-0.025-0.01-0.037c-0.101-0.012-0.217-0.03-0.344-0.033
											c-0.259-0.008-0.55,0.027-0.853,0.069c-0.609,0.138-1.27,0.32-1.918,0.663c-1.305,0.642-2.603,1.593-3.787,2.73
											c-0.594,0.566-1.159,1.186-1.726,1.807c-0.525,0.663-1.097,1.294-1.596,1.994c-0.491,0.704-1.021,1.388-1.488,2.119
											l-1.394,2.213l-0.028,0.044c-0.271,0.431-0.841,0.56-1.272,0.289c-0.383-0.241-0.528-0.719-0.364-1.124l1.012-2.517
											c0.344-0.84,0.764-1.652,1.147-2.486c0.391-0.83,0.877-1.621,1.318-2.44c0.493-0.792,0.993-1.59,1.554-2.361
											c1.12-1.543,2.455-3.012,4.133-4.269c0.824-0.64,1.8-1.17,2.856-1.615c0.548-0.201,1.114-0.385,1.734-0.504
											c0.311-0.06,0.639-0.098,0.978-0.128c0.395-0.007,0.603-0.054,1.312,0.06c1.526,0.349,2.48,1.87,2.131,3.396
											C351.649,183.531,350.129,184.484,348.603,184.135z"/>
									</g>
								</g>
								
									<path style="fill:none;stroke:#592D38;stroke-width:2.4227;stroke-linecap:round;stroke-linejoin:round;stroke-miterlimit:10;" d="
									M371.757,231.104c-15.918,1.248-10.156-8.774-10.156-8.774l4.208-8.618"/>
								<path style="fill:#703E49;" d="M395.578,224.832l9.973-3.648c3.036-1.193,6.495,0.315,7.687,3.351l0.21,0.534
									c1.191,3.036-0.317,6.497-3.353,7.691l-9.966,3.645c-3.036,1.193-6.497-0.314-7.691-3.35l-0.209-0.533
									C391.034,229.486,392.542,226.025,395.578,224.832z"/>
								<path style="fill:#703E49;" d="M347.181,235.425l-5.904-2.766c-2.499-1.089-3.651-4.023-2.562-6.521l0.191-0.439
									c1.09-2.498,4.026-3.652,6.525-2.563l5.898,2.764c2.499,1.088,3.653,4.023,2.565,6.523l-0.191,0.439
									C352.614,235.361,349.679,236.514,347.181,235.425z"/>
								<path style="fill:#DD5563;" d="M393.915,250.004c-0.69,3.406-4.011,5.607-7.417,4.916c-3.406-0.69-5.607-4.011-4.917-7.417
									c0.691-3.406,4.011-5.607,7.417-4.917C392.405,243.277,394.606,246.598,393.915,250.004z"/>
								
									<path style="fill:none;stroke:#24181A;stroke-width:2.4899;stroke-linecap:round;stroke-linejoin:round;stroke-miterlimit:10;" d="
									M376.905,253.07c0,0,8.43-8.578,16.86-4.838"/>
								<path style="fill:#24181A;" d="M442.36,177.948c0,0-6.024,15.754,3.744,23.393c9.768,7.639-0.294,8.428-3.857,19.022
									s-0.874,21.75-0.874,21.75l14.737-20.353l8.644,5.149c0,0,15.006-3.183,16.677-18.405
									c1.672-15.221,13.7-39.661-13.106-81.875c0,0-53.743-34.946-95.663-16.568c0,0-27.644,17.736-30.675,32.682
									C341.988,142.743,419.128,136.842,442.36,177.948z"/>
								<path style="fill:#24181A;" d="M438.16,204.402c-0.188,6.389,4.84,11.721,11.229,11.909
									c6.39,0.188,11.721-4.84,11.909-11.229c0.188-6.39-4.84-11.722-11.229-11.909
									C443.68,192.985,438.348,198.012,438.16,204.402z"/>
								<path style="fill:#24181A;" d="M432.78,189.326c-0.188,6.39,4.84,11.722,11.229,11.909
									c6.389,0.188,11.721-4.84,11.909-11.23c0.188-6.389-4.84-11.721-11.229-11.909
									C438.3,177.909,432.968,182.936,432.78,189.326z"/>
								<g>
									<g>
										<path style="fill:#89525C;" d="M445.056,237.908c0,0-0.201-26.918,20.535-18.855c13.707,5.331-1.207,27.092-9.556,26.32
											C447.687,244.603,445.056,237.908,445.056,237.908z"/>
										
											<path style="fill:none;stroke:#080C3E;stroke-width:1.8225;stroke-linecap:round;stroke-linejoin:round;stroke-miterlimit:10;" d="
											M464.754,226.908c0,0-5.322-5.395-10.991,3.206"/>
										
											<path style="fill:none;stroke:#080C3E;stroke-width:1.8225;stroke-linecap:round;stroke-linejoin:round;stroke-miterlimit:10;" d="
											M458.51,230.096c0,0,2.293,2.497-0.14,6.627"/>
										
											<path style="fill:none;stroke:#080C3E;stroke-width:1.8225;stroke-linecap:round;stroke-linejoin:round;stroke-miterlimit:10;" d="
											M447.576,224.83c4.219-6.79,21.296-13.79,21.968-0.314c0,0,1.898,10.249-5.934,17.553"/>
									</g>
									<path style="fill:#EAA941;" d="M460.427,245.234c-0.41,2.022-2.38,3.328-4.402,2.918c-2.022-0.41-3.328-2.38-2.918-4.402
										c0.41-2.022,2.38-3.328,4.403-2.918C459.53,241.242,460.837,243.213,460.427,245.234z"/>
								</g>
								<path style="fill:#EEE8EF;" d="M470.671,227.71c1.458,5.568,3.533,3.043,5.115-0.673c1.013-2.382,0.467-5.169,1.211-6.46
									c22.217-38.555-21.804-73.487-21.804-73.487c-54.375-43.069-104.039-25.438-104.039-25.438
									c-12.921,2.692-11.306,15.613-11.306,15.613c-20.996,6.999-7.537,36.071-7.537,36.071
									c4.845-22.073,30.149-18.843,30.149-18.843c66.219-1.077,88.292,59.221,90.445,64.066
									C452.905,218.558,466.668,212.421,470.671,227.71z"/>
								<path style="fill:#D6C7D8;" d="M336.538,144.991c5.807-7.049,19.786-5.532,29.39-4.94
									c-5.449,4.266-11.635,6.714-13.65,14.319c-0.053,0.198-0.032,0.387-0.008,0.574c-5.535,1.003-12.047,3.603-16.291,9.799
									C334.303,157.284,332.668,149.689,336.538,144.991z"/>
								<path style="fill:#D6C7D8;" d="M339.848,137.265c0,0-1.615-12.921,11.306-15.613c0,0,0.401-0.14,1.128-0.356
									c-0.835,1.14-1.619,2.324-2.276,3.619c-0.373,0.735-0.169,1.82,0.641,2.193c10.77,4.95,23.372,1.683,34.787,3.911
									c11.252,2.196,22.15,5.92,33.35,8.37c14.948,3.27,39.368,6.999,43.701,24.491c-9.003,1.101-19.107-3.743-26.999-7.128
									c-7.538-3.233-14.963-6.571-22.655-9.422c-9.695-3.594-19.115-7.451-29.541-4.621c-9.528,2.586-17.135,9.446-27.05,10.334
									c2.925-6.212,10.211-8.445,14.926-13.317c0.985-1.018,0.178-2.715-1.19-2.729c-10.476-0.108-26.029-2.921-34.694,4.719
									c-7.239,6.383-3.336,17.252-1.411,26.869c-0.622,1.451-1.176,2.995-1.561,4.752
									C332.311,173.335,318.852,144.264,339.848,137.265z"/>
								
									<path style="fill:none;stroke:#080C3E;stroke-width:1.3064;stroke-linecap:round;stroke-linejoin:round;stroke-miterlimit:10;" d="
									M358.153,154.492c0,0,61.105-10.767,91.792,55.99c0,0,0.269,8.076,6.191,7.537"/>
								
									<path style="fill:none;stroke:#080C3E;stroke-width:1.3064;stroke-linecap:round;stroke-linejoin:round;stroke-miterlimit:10;" d="
									M353.442,154.762c0,0-17.228,1.211-21.131,18.574c0,0-3.499-5.653-4.307-15.343"/>
								
									<path style="fill:none;stroke:#080C3E;stroke-width:1.3064;stroke-linecap:round;stroke-linejoin:round;stroke-miterlimit:10;" d="
									M349.808,154.762c5.59-5.624,12.456-10.261,19.693-13.463c36.874-16.316,88.333,15.217,104.904,48.196
									c3.04,6.05,5.363,12.449,7.027,19.009c0,0-1.608,6.824-4.435,12.074"/>
								
									<path style="fill:none;stroke:#080C3E;stroke-width:1.3064;stroke-linecap:round;stroke-linejoin:round;stroke-miterlimit:10;" d="
									M447.521,178.988c0,0,17.766,10.902,29.476,41.589c0,0,1.615,9.287-7.672,11.306"/>
								
									<path style="fill:none;stroke:#080C3E;stroke-width:1.3064;stroke-linecap:round;stroke-linejoin:round;stroke-miterlimit:10;" d="
									M340.925,137.399c0,0,28.264-4.442,47.241-0.404"/>
								
									<path style="fill:none;stroke:#080C3E;stroke-width:1.3064;stroke-linecap:round;stroke-linejoin:round;stroke-miterlimit:10;" d="
									M356.668,119.633c0,0,39.17-12.921,85.604,18.169"/>
								
									<path style="fill:none;stroke:#080C3E;stroke-width:1.3064;stroke-linecap:round;stroke-linejoin:round;stroke-miterlimit:10;" d="
									M447.925,141.841c21.031,12.044,33.876,34.232,35.532,58.143"/>
							</g>
							
								<path style="fill:none;stroke:#080C3E;stroke-width:1.3064;stroke-linecap:round;stroke-linejoin:round;stroke-miterlimit:10;" d="
								M338.906,225.699c0,0,0.193,13.225,3.634,20.316"/>
							
								<path style="fill:none;stroke:#080C3E;stroke-width:1.8225;stroke-linecap:round;stroke-linejoin:round;stroke-miterlimit:10;" d="
								M447.576,224.83c4.219-6.79,21.296-13.79,21.968-0.314c0,0,1.898,10.249-5.934,17.553"/>
							
								<path style="fill:none;stroke:#080C3E;stroke-width:1.8225;stroke-linecap:round;stroke-linejoin:round;stroke-miterlimit:10;" d="
								M458.51,230.096c0,0,2.293,2.497-0.14,6.627"/>
						</g>
						
							<path style="fill:none;stroke:#080C3E;stroke-width:1.3064;stroke-linecap:round;stroke-linejoin:round;stroke-miterlimit:10;" d="
							M353.129,120.364c0,0-14.358,3.442-13.281,16.901c0,0-12.383,3.23-11.306,17.228"/>
						
							<path style="fill:none;stroke:#080C3E;stroke-width:1.3064;stroke-linecap:round;stroke-linejoin:round;stroke-miterlimit:10;" d="
							M416.729,269.517c-24.111,13.941-58.994,13.216-70.748-16.412"/>
						
							<path style="fill:none;stroke:#080C3E;stroke-width:1.3064;stroke-linecap:round;stroke-linejoin:round;stroke-miterlimit:10;" d="
							M333.546,178.384c0,0-0.968,18.1,3.255,26.299l0.956,9.838"/>
					</g>
				</g>
				<path style="fill:#E5D9E6;" d="M470.081,388.348c0,0-13.359-17.831-22.174-22.543c-9.514-5.085-90.924-18.668-130.19-16.329
					c0,0-21.341,24.209-12.895,50.161c8.445,25.951,13.409,38.696,13.436,45.012c0.027,6.316,0,54.413,0,54.413h126.05
					C444.308,499.061,466.02,388.238,470.081,388.348z"/>
				<g>
					<path style="fill:#EEE8EF;" d="M470.081,388.348c0,0-13.359-17.831-22.174-22.543c-9.514-5.085-90.924-18.668-130.19-16.329
						c0,0-11.662,13.246-14.325,30.641c4.061-14.022,12.857-24.017,12.857-24.017c39.266-2.339,120.677,11.244,130.19,16.329
						c7.376,3.943,17.929,17.065,21.179,21.246C468.688,390.293,469.542,388.334,470.081,388.348z"/>
				</g>
				
					<path style="fill:none;stroke:#080C3E;stroke-width:1.0199;stroke-linecap:round;stroke-linejoin:round;stroke-miterlimit:10;" d="
					M303.651,392.879c0,0-3.676,24.49,32.543,21.804"/>
				
					<path style="fill:none;stroke:#080C3E;stroke-width:1.0199;stroke-linecap:round;stroke-linejoin:round;stroke-miterlimit:10;" d="
					M371.214,414.102c0,0,24.74,13.143,52.432,0.858"/>
				
					<path style="fill:none;stroke:#080C3E;stroke-width:1.0199;stroke-linecap:round;stroke-linejoin:round;stroke-miterlimit:10;" d="
					M469.322,384.421c0,0-14.181,52.396-16.516,63.285c-2.335,10.889-2.335,12.66-2.335,12.66"/>
				
					<line style="fill:none;stroke:#080C3E;stroke-width:1.0199;stroke-linecap:round;stroke-linejoin:round;stroke-miterlimit:10;" x1="444.308" y1="498.176" x2="448.699" y2="467.722"/>
				
					<path style="fill:none;stroke:#080C3E;stroke-width:1.0199;stroke-linecap:round;stroke-linejoin:round;stroke-miterlimit:10;" d="
					M303.664,378.463c0,0,2-14.468,9.192-24.052c2.381-3.173,6.207-4.926,10.173-4.835c12.995,0.298,47.026,1.411,70.35,5.199"/>
				
					<line style="fill:none;stroke:#080C3E;stroke-width:1.0199;stroke-linecap:round;stroke-linejoin:round;stroke-miterlimit:10;" x1="402.736" y1="356.151" x2="428.597" y2="360.139"/>
				
					<path style="fill:none;stroke:#080C3E;stroke-width:1.0199;stroke-linecap:round;stroke-linejoin:round;stroke-miterlimit:10;" d="
					M434.786,361.961c0,0,20.601,2.816,29.6,19.303"/>
				
					<path style="fill:none;stroke:#080C3E;stroke-width:1.0199;stroke-linecap:round;stroke-linejoin:round;stroke-miterlimit:10;" d="
					M311.642,420.206l3.164,11.691c2.291,8.464,3.452,17.195,3.452,25.964v41.201"/>
				
					<linearGradient id="SVGID_00000170239661725101603850000010915770226593300129_" gradientUnits="userSpaceOnUse" x1="567.1517" y1="404.7812" x2="734.3904" y2="404.7812" gradientTransform="matrix(-1 0.0075 0.0075 1 1054.9349 0.6245)">
					<stop  offset="0" style="stop-color:#663535"/>
					<stop  offset="1" style="stop-color:#663535;stop-opacity:0"/>
				</linearGradient>
				<path style="opacity:0.36;fill:url(#SVGID_00000170239661725101603850000010915770226593300129_);" d="M333.61,498.736
					c0,0-0.898-3.519-2.355-9.359c0.267-1.128,0.564-2.253,0.921-3.369c7.939-24.816,46.077-19.839,64.922-13.439
					c6.141,2.085,15.004,5.547,20.008-0.605c9.71-11.937,6.788-28.735,3.19-42.397c-0.298-1.129-1.404-1.516-2.435-1.349
					c-17.573,2.859-36.267,1.771-53.863-0.242c-11.993-1.371-28.594-2.921-40.362-9.615c18.395,4.225,39.173,0.856,57.476,1.867
					c16.324,0.902,34.871,2.713,49.57-6.185c12.625-7.643,17.125-21.941,18.407-35.904c1.067-11.621-0.423-23.251,0.342-34.878
					c0.453-6.891,1.191-19.265,9.206-21.992c6.701-2.279,15.098,3.104,20.512,6.389c2.202,1.336,4.364,2.738,6.494,4.188
					c10.898,7.421-0.34,20.383-3.474,29.848c-0.087,0.263,1.277,0.235,1.033,0.339c-7.163,3.054-15.962,30.145-21.029,47.857
					c-1.956,6.836-4.115,13.609-6.603,20.269c-8.082,21.633-10.528,60.177-14.37,69.024L333.61,498.736z"/>
				<g>
					<g>
						<path style="fill:#89525C;" d="M492.925,335.89l-4.351,93.654c-0.304,7.566-1.496,1.566-5.828,7.776
							c-4.626,6.63-11.374,11.84-19.288,4.393c0,0-26.352-70.635-26.238-111.2c0,0-5.338-37.203,26.922-33.469
							C496.403,300.777,492.925,335.89,492.925,335.89z"/>
						<g>
							<path style="fill:#89525C;" d="M456.973,425.229c-6.821,18.808-18.841,60.169-19.895,139.625l19.857,1.467
								c0,0,35.357-121.224,31.638-136.776c0,0,0.166-3.489-3.191-7.59C476.504,411.106,461.753,412.05,456.973,425.229z"/>
						</g>
						
							<path style="fill:none;stroke:#080C3E;stroke-width:1.0199;stroke-linecap:round;stroke-linejoin:round;stroke-miterlimit:10;" d="
							M484.573,307.07c-3.951-4.514-8.331-7.274-12.664-8.879c-1.247-0.462-2.545-0.77-3.856-0.995
							c-2.351-0.403-6.434-1.135-7.515-1.528"/>
						
							<path style="fill:none;stroke:#080C3E;stroke-width:1.0199;stroke-linecap:round;stroke-linejoin:round;stroke-miterlimit:10;" d="
							M486.452,311.569c0,0,7.132,7.903,5.946,37.433"/>
						
							<path style="fill:none;stroke:#080C3E;stroke-width:1.0199;stroke-linecap:round;stroke-linejoin:round;stroke-miterlimit:10;" d="
							M456.936,566.321c0,0,20.697-73.528,27.131-103.909"/>
						
							<polyline style="fill:none;stroke:#080C3E;stroke-width:1.0199;stroke-linecap:round;stroke-linejoin:round;stroke-miterlimit:10;" points="
							492.226,353.277 490.2,403.708 489.499,418.892 						"/>
						
							<path style="fill:none;stroke:#080C3E;stroke-width:1.0199;stroke-linecap:round;stroke-linejoin:round;stroke-miterlimit:10;" d="
							M485.735,453.257c0,0,3.757-14.526,2.561-26.861"/>
						
							<path style="fill:none;stroke:#080C3E;stroke-width:1.0199;stroke-linecap:round;stroke-linejoin:round;stroke-miterlimit:10;" d="
							M439.13,518.601c0,0,6.136-69.81,17.843-93.372l5.99-1.835"/>
					</g>
					
						<path style="fill:none;stroke:#080C3E;stroke-width:1.0199;stroke-linecap:round;stroke-linejoin:round;stroke-miterlimit:10;" d="
						M437.527,339.196c0,0,4.418,35.561,10.346,54.687"/>
					
						<line style="fill:none;stroke:#080C3E;stroke-width:1.0199;stroke-linecap:round;stroke-linejoin:round;stroke-miterlimit:10;" x1="449.138" y1="397.262" x2="456.081" y2="420.206"/>
					
						<line style="fill:none;stroke:#080C3E;stroke-width:1.0199;stroke-linecap:round;stroke-linejoin:round;stroke-miterlimit:10;" x1="456.973" y1="425.229" x2="456.973" y2="422.948"/>
				</g>
				
					<line style="fill:none;stroke:#080C3E;stroke-width:1.0199;stroke-linecap:round;stroke-linejoin:round;stroke-miterlimit:10;" x1="394.213" y1="275.984" x2="393.405" y2="287.441"/>
				<g style="opacity:0.74;">
					<g>
						
							<radialGradient id="SVGID_00000145018437408162155480000008105815318636003465_" cx="362.6769" cy="169.6667" r="4.3125" gradientUnits="userSpaceOnUse">
							<stop  offset="0" style="stop-color:#D55925"/>
							<stop  offset="1" style="stop-color:#D55925;stop-opacity:0"/>
						</radialGradient>
						
							<circle style="fill:url(#SVGID_00000145018437408162155480000008105815318636003465_);" cx="362.677" cy="169.667" r="4.313"/>
						<path style="fill:#592E37;" d="M364.01,169.667c0,0.736-0.597,1.333-1.333,1.333c-0.736,0-1.333-0.597-1.333-1.333
							c0-0.736,0.597-1.333,1.333-1.333C363.413,168.333,364.01,168.93,364.01,169.667z"/>
					</g>
					<g>
						
							<radialGradient id="SVGID_00000120554976276044737250000000957245181526500287_" cx="355.3626" cy="263.4653" r="4.3125" gradientUnits="userSpaceOnUse">
							<stop  offset="0" style="stop-color:#D55925"/>
							<stop  offset="1" style="stop-color:#D55925;stop-opacity:0"/>
						</radialGradient>
						
							<circle style="fill:url(#SVGID_00000120554976276044737250000000957245181526500287_);" cx="355.363" cy="263.465" r="4.313"/>
						<path style="fill:#592E37;" d="M356.696,263.465c0,0.736-0.597,1.333-1.333,1.333c-0.736,0-1.333-0.597-1.333-1.333
							c0-0.736,0.597-1.333,1.333-1.333C356.099,262.132,356.696,262.729,356.696,263.465z"/>
					</g>
					<g>
						
							<radialGradient id="SVGID_00000133509198975018895230000007761521043682296969_" cx="346.5826" cy="254.9953" r="2.1563" gradientUnits="userSpaceOnUse">
							<stop  offset="0" style="stop-color:#D55925"/>
							<stop  offset="1" style="stop-color:#D55925;stop-opacity:0"/>
						</radialGradient>
						<path style="fill:url(#SVGID_00000133509198975018895230000007761521043682296969_);" d="M348.739,254.995
							c0,1.191-0.965,2.156-2.156,2.156c-1.191,0-2.156-0.965-2.156-2.156c0-1.191,0.965-2.156,2.156-2.156
							C347.773,252.839,348.739,253.804,348.739,254.995z"/>
						<path style="fill:#592E37;" d="M347.249,254.995c0,0.368-0.298,0.667-0.667,0.667c-0.368,0-0.667-0.299-0.667-0.667
							s0.298-0.667,0.667-0.667C346.951,254.329,347.249,254.627,347.249,254.995z"/>
					</g>
					<g>
						
							<radialGradient id="SVGID_00000088847229220653980140000001317233576315987870_" cx="353.7191" cy="248.9917" r="2.1563" gradientUnits="userSpaceOnUse">
							<stop  offset="0" style="stop-color:#D55925"/>
							<stop  offset="1" style="stop-color:#D55925;stop-opacity:0"/>
						</radialGradient>
						<path style="fill:url(#SVGID_00000088847229220653980140000001317233576315987870_);" d="M355.875,248.992
							c0,1.191-0.965,2.156-2.156,2.156c-1.191,0-2.156-0.965-2.156-2.156s0.965-2.156,2.156-2.156
							C354.91,246.835,355.875,247.801,355.875,248.992z"/>
						<path style="fill:#592E37;" d="M354.386,248.992c0,0.368-0.298,0.667-0.667,0.667c-0.368,0-0.667-0.299-0.667-0.667
							s0.298-0.667,0.667-0.667C354.087,248.325,354.386,248.624,354.386,248.992z"/>
					</g>
					<g>
						
							<radialGradient id="SVGID_00000155836439548961758910000000724993153503676307_" cx="405.9855" cy="235.0525" r="4.3125" gradientUnits="userSpaceOnUse">
							<stop  offset="0" style="stop-color:#D55925"/>
							<stop  offset="1" style="stop-color:#D55925;stop-opacity:0"/>
						</radialGradient>
						
							<circle style="fill:url(#SVGID_00000155836439548961758910000000724993153503676307_);" cx="405.986" cy="235.053" r="4.313"/>
						<path style="fill:#592E37;" d="M407.319,235.053c0,0.736-0.597,1.333-1.333,1.333c-0.736,0-1.333-0.597-1.333-1.333
							c0-0.736,0.597-1.333,1.333-1.333C406.722,233.719,407.319,234.316,407.319,235.053z"/>
					</g>
					<g>
						
							<radialGradient id="SVGID_00000173854089011978189840000001930196263228444846_" cx="404.7419" cy="222.668" r="2.1562" gradientUnits="userSpaceOnUse">
							<stop  offset="0" style="stop-color:#D55925"/>
							<stop  offset="1" style="stop-color:#D55925;stop-opacity:0"/>
						</radialGradient>
						<path style="fill:url(#SVGID_00000173854089011978189840000001930196263228444846_);" d="M406.898,222.668
							c0,1.191-0.965,2.156-2.156,2.156c-1.191,0-2.156-0.965-2.156-2.156c0-1.191,0.965-2.156,2.156-2.156
							C405.933,220.512,406.898,221.477,406.898,222.668z"/>
						<path style="fill:#592E37;" d="M405.409,222.668c0,0.368-0.299,0.667-0.667,0.667c-0.368,0-0.667-0.299-0.667-0.667
							s0.298-0.667,0.667-0.667C405.11,222.001,405.409,222.3,405.409,222.668z"/>
					</g>
					<g>
						
							<radialGradient id="SVGID_00000041991212621820265760000016799741107188963517_" cx="396.2217" cy="230.1877" r="2.1563" gradientUnits="userSpaceOnUse">
							<stop  offset="0" style="stop-color:#D55925"/>
							<stop  offset="1" style="stop-color:#D55925;stop-opacity:0"/>
						</radialGradient>
						<path style="fill:url(#SVGID_00000041991212621820265760000016799741107188963517_);" d="M398.378,230.188
							c0,1.191-0.965,2.156-2.156,2.156c-1.191,0-2.156-0.965-2.156-2.156c0-1.191,0.965-2.156,2.156-2.156
							C397.413,228.031,398.378,228.997,398.378,230.188z"/>
						<path style="fill:#592E37;" d="M396.888,230.188c0,0.368-0.298,0.667-0.667,0.667c-0.368,0-0.667-0.298-0.667-0.667
							c0-0.368,0.298-0.667,0.667-0.667C396.59,229.521,396.888,229.819,396.888,230.188z"/>
					</g>
					<g>
						
							<radialGradient id="SVGID_00000168118152942533521350000001959567881022014121_" cx="416.9915" cy="223.3358" r="3.4144" gradientUnits="userSpaceOnUse">
							<stop  offset="0" style="stop-color:#D55925"/>
							<stop  offset="1" style="stop-color:#D55925;stop-opacity:0"/>
						</radialGradient>
						
							<circle style="fill:url(#SVGID_00000168118152942533521350000001959567881022014121_);" cx="416.991" cy="223.336" r="3.414"/>
						<path style="fill:#592E37;" d="M418.047,223.336c0,0.583-0.473,1.056-1.056,1.056s-1.056-0.473-1.056-1.056
							s0.473-1.056,1.056-1.056S418.047,222.753,418.047,223.336z"/>
					</g>
					<g>
						
							<radialGradient id="SVGID_00000169541442410976779110000010237460054566196370_" cx="419.1477" cy="237.0737" r="2.1563" gradientUnits="userSpaceOnUse">
							<stop  offset="0" style="stop-color:#D55925"/>
							<stop  offset="1" style="stop-color:#D55925;stop-opacity:0"/>
						</radialGradient>
						<path style="fill:url(#SVGID_00000169541442410976779110000010237460054566196370_);" d="M421.304,237.074
							c0,1.191-0.965,2.156-2.156,2.156c-1.191,0-2.156-0.965-2.156-2.156c0-1.191,0.965-2.156,2.156-2.156
							C420.339,234.917,421.304,235.883,421.304,237.074z"/>
						<path style="fill:#592E37;" d="M419.814,237.074c0,0.368-0.298,0.667-0.667,0.667c-0.368,0-0.667-0.298-0.667-0.667
							c0-0.368,0.298-0.667,0.667-0.667C419.516,236.407,419.814,236.706,419.814,237.074z"/>
					</g>
					<g>
						
							<radialGradient id="SVGID_00000183971262078532247510000011430988536648585869_" cx="371.8135" cy="173.1575" r="2.8229" gradientUnits="userSpaceOnUse">
							<stop  offset="0" style="stop-color:#D55925"/>
							<stop  offset="1" style="stop-color:#D55925;stop-opacity:0"/>
						</radialGradient>
						<path style="fill:url(#SVGID_00000183971262078532247510000011430988536648585869_);" d="M374.636,173.157
							c0,1.559-1.264,2.823-2.823,2.823c-1.559,0-2.823-1.264-2.823-2.823c0-1.559,1.264-2.823,2.823-2.823
							C373.373,170.335,374.636,171.598,374.636,173.157z"/>
						<path style="fill:#592E37;" d="M372.686,173.157c0,0.482-0.391,0.873-0.873,0.873c-0.482,0-0.873-0.391-0.873-0.873
							c0-0.482,0.391-0.873,0.873-0.873C372.296,172.285,372.686,172.675,372.686,173.157z"/>
					</g>
					<g>
						
							<radialGradient id="SVGID_00000111914309510663106860000012486452174701263033_" cx="355.1306" cy="174.5689" r="1.4115" gradientUnits="userSpaceOnUse">
							<stop  offset="0" style="stop-color:#D55925"/>
							<stop  offset="1" style="stop-color:#D55925;stop-opacity:0"/>
						</radialGradient>
						<path style="fill:url(#SVGID_00000111914309510663106860000012486452174701263033_);" d="M356.542,174.569
							c0,0.78-0.632,1.411-1.411,1.411c-0.779,0-1.411-0.632-1.411-1.411c0-0.779,0.632-1.411,1.411-1.411
							C355.91,173.157,356.542,173.789,356.542,174.569z"/>
						<circle style="fill:#592E37;" cx="355.131" cy="174.569" r="0.436"/>
					</g>
					<g>
						
							<radialGradient id="SVGID_00000156559723837555701030000004139359803070608260_" cx="362.5072" cy="181.9454" r="1.4115" gradientUnits="userSpaceOnUse">
							<stop  offset="0" style="stop-color:#D55925"/>
							<stop  offset="1" style="stop-color:#D55925;stop-opacity:0"/>
						</radialGradient>
						<path style="fill:url(#SVGID_00000156559723837555701030000004139359803070608260_);" d="M363.919,181.945
							c0,0.78-0.632,1.411-1.411,1.411s-1.411-0.632-1.411-1.411c0-0.779,0.632-1.411,1.411-1.411S363.919,181.166,363.919,181.945z
							"/>
						<circle style="fill:#592E37;" cx="362.507" cy="181.945" r="0.436"/>
					</g>
					<g>
						
							<radialGradient id="SVGID_00000051368639424080136800000016333656225336501138_" cx="339.1613" cy="164.6031" r="1.4115" gradientUnits="userSpaceOnUse">
							<stop  offset="0" style="stop-color:#D55925"/>
							<stop  offset="1" style="stop-color:#D55925;stop-opacity:0"/>
						</radialGradient>
						<path style="fill:url(#SVGID_00000051368639424080136800000016333656225336501138_);" d="M340.573,164.603
							c0,0.78-0.632,1.411-1.411,1.411c-0.779,0-1.411-0.632-1.411-1.411c0-0.779,0.632-1.411,1.411-1.411
							C339.941,163.192,340.573,163.824,340.573,164.603z"/>
						<path style="fill:#592E37;" d="M339.598,164.603c0,0.241-0.195,0.436-0.436,0.436s-0.436-0.195-0.436-0.436
							s0.195-0.436,0.436-0.436S339.598,164.362,339.598,164.603z"/>
					</g>
				</g>
			</g>
		</g>
	</g>
	<rect x="-15.333" y="-150" style="fill:#080C3E;" width="0" height="0"/>
	<g>
		<g>
			<path style="fill:#0070A8;" d="M161.151,204.333H39.676v-23.799h121.475c6.572,0,11.9,5.328,11.9,11.9l0,0
				C173.05,199.006,167.723,204.333,161.151,204.333z"/>
			
				<rect x="31.671" y="180.534" transform="matrix(-1 -1.224647e-16 1.224647e-16 -1 66.344 384.8673)" style="fill:#FF92B5;" width="3.002" height="23.799"/>
			
				<rect x="24.495" y="180.534" transform="matrix(-1 -1.224647e-16 1.224647e-16 -1 51.9916 384.8673)" style="fill:#0070A8;" width="3.002" height="23.799"/>
			
				<rect x="17.319" y="180.534" transform="matrix(-1 -1.224647e-16 1.224647e-16 -1 37.6394 384.8673)" style="fill:#B3D2DC;" width="3.002" height="23.799"/>
			<text transform="matrix(1 0 0 1 44.679 200.9385)" style="fill:#FFFFFF; font-family:'BebasNeueBold'; font-size:24px;">TYPES OF ACNE</text>
		</g>
		<g>
			<circle style="fill:#89525C;" cx="72.704" cy="247.832" r="28.043"/>
			
				<circle style="fill:none;stroke:#080C3E;stroke-width:0.6199;stroke-linecap:round;stroke-linejoin:round;stroke-miterlimit:10;" cx="70.702" cy="246.831" r="28.043"/>
			<g style="opacity:0.51;">
				
					<radialGradient id="SVGID_00000116940461534501586990000012776930841315473038_" cx="66.9604" cy="255.1194" r="5.9873" gradientUnits="userSpaceOnUse">
					<stop  offset="0" style="stop-color:#D55925"/>
					<stop  offset="1" style="stop-color:#D55925;stop-opacity:0"/>
				</radialGradient>
				<path style="fill:url(#SVGID_00000116940461534501586990000012776930841315473038_);" d="M72.948,255.119
					c0,3.307-2.681,5.987-5.987,5.987c-3.307,0-5.987-2.681-5.987-5.987c0-3.307,2.681-5.987,5.987-5.987
					C70.267,249.132,72.948,251.813,72.948,255.119z"/>
				<path style="fill:#592E37;" d="M68.812,255.119c0,1.022-0.829,1.851-1.851,1.851s-1.851-0.829-1.851-1.851
					c0-1.022,0.829-1.851,1.851-1.851S68.812,254.097,68.812,255.119z"/>
			</g>
			<g style="opacity:0.51;">
				
					<radialGradient id="SVGID_00000152222759643052801320000014664368110735556744_" cx="65.2338" cy="237.9252" r="2.9937" gradientUnits="userSpaceOnUse">
					<stop  offset="0" style="stop-color:#D55925"/>
					<stop  offset="1" style="stop-color:#D55925;stop-opacity:0"/>
				</radialGradient>
				<path style="fill:url(#SVGID_00000152222759643052801320000014664368110735556744_);" d="M68.228,237.925
					c0,1.653-1.34,2.994-2.994,2.994c-1.653,0-2.994-1.34-2.994-2.994s1.34-2.994,2.994-2.994
					C66.887,234.932,68.228,236.272,68.228,237.925z"/>
				<path style="fill:#592E37;" d="M66.159,237.925c0,0.511-0.414,0.926-0.925,0.926c-0.511,0-0.926-0.414-0.926-0.926
					S64.723,237,65.234,237C65.745,237,66.159,237.414,66.159,237.925z"/>
			</g>
			<g style="opacity:0.51;">
				
					<radialGradient id="SVGID_00000009560570997413708960000008653565760837681335_" cx="53.4047" cy="248.3651" r="2.9936" gradientUnits="userSpaceOnUse">
					<stop  offset="0" style="stop-color:#D55925"/>
					<stop  offset="1" style="stop-color:#D55925;stop-opacity:0"/>
				</radialGradient>
				<path style="fill:url(#SVGID_00000009560570997413708960000008653565760837681335_);" d="M56.398,248.365
					c0,1.653-1.34,2.994-2.994,2.994c-1.653,0-2.994-1.34-2.994-2.994c0-1.653,1.34-2.994,2.994-2.994
					C55.058,245.372,56.398,246.712,56.398,248.365z"/>
				<path style="fill:#592E37;" d="M54.33,248.365c0,0.511-0.414,0.926-0.925,0.926s-0.926-0.414-0.926-0.926
					s0.414-0.926,0.926-0.926S54.33,247.854,54.33,248.365z"/>
			</g>
			<g style="opacity:0.51;">
				
					<radialGradient id="SVGID_00000082364305800108118820000008736921742301038262_" cx="82.2407" cy="238.8524" r="4.7405" gradientUnits="userSpaceOnUse">
					<stop  offset="0" style="stop-color:#D55925"/>
					<stop  offset="1" style="stop-color:#D55925;stop-opacity:0"/>
				</radialGradient>
				<path style="fill:url(#SVGID_00000082364305800108118820000008736921742301038262_);" d="M86.981,238.852
					c0,2.618-2.122,4.741-4.741,4.741c-2.618,0-4.741-2.122-4.741-4.741c0-2.618,2.122-4.74,4.741-4.74
					C84.859,234.112,86.981,236.234,86.981,238.852z"/>
				<path style="fill:#592E37;" d="M83.706,238.852c0,0.81-0.656,1.466-1.466,1.466c-0.809,0-1.466-0.656-1.466-1.466
					c0-0.809,0.656-1.466,1.466-1.466C83.05,237.387,83.706,238.043,83.706,238.852z"/>
			</g>
			<g style="opacity:0.51;">
				
					<radialGradient id="SVGID_00000103949523708976814360000012857435978391976095_" cx="84.2338" cy="255.9245" r="2.9937" gradientUnits="userSpaceOnUse">
					<stop  offset="0" style="stop-color:#D55925"/>
					<stop  offset="1" style="stop-color:#D55925;stop-opacity:0"/>
				</radialGradient>
				<path style="fill:url(#SVGID_00000103949523708976814360000012857435978391976095_);" d="M87.228,255.924
					c0,1.653-1.34,2.994-2.994,2.994c-1.653,0-2.994-1.34-2.994-2.994c0-1.653,1.34-2.994,2.994-2.994
					C85.887,252.931,87.228,254.271,87.228,255.924z"/>
				<path style="fill:#592E37;" d="M85.159,255.924c0,0.511-0.414,0.926-0.926,0.926c-0.511,0-0.926-0.414-0.926-0.926
					c0-0.511,0.414-0.926,0.926-0.926C84.745,254.999,85.159,255.413,85.159,255.924z"/>
			</g>
			<g>
				<text transform="matrix(1 0 0 1 111.0766 239.5563)" style="fill:#080C3E; font-family:'BebasNeueBold'; font-size:13px;">ACNE SCAR</text>
			</g>
			<circle style="fill:#FF92B5;" cx="106.252" cy="234.407" r="1.584"/>
			<rect x="111" y="245.667" style="fill:none;" width="84.04" height="22.111"/>
			<text transform="matrix(1 0 0 1 111.0002 248.6343)"><tspan x="0" y="0" style="fill:#423F3F; font-family:'Montserrat-Regular'; font-size:4px;">Lorem ipsum Lorem ipsum Lorem ipsum </tspan><tspan x="0" y="7" style="fill:#423F3F; font-family:'Montserrat-Regular'; font-size:4px;">dolor sit amet, consectetuer adipiscing </tspan><tspan x="0" y="14" style="fill:#423F3F; font-family:'Montserrat-Regular'; font-size:4px;">elit, Lorem ipsum dolor sit amet, </tspan></text>
			<g>
				<g>
					
						<ellipse transform="matrix(0.7071 -0.7071 0.7071 0.7071 -147.6394 99.6297)" style="fill:#F9C0D5;" cx="46.444" cy="228.031" rx="9.661" ry="9.661"/>
					
						<ellipse transform="matrix(0.7071 -0.7071 0.7071 0.7071 -146.9319 99.3366)" style="fill:none;stroke:#080C3E;stroke-width:0.6199;stroke-linecap:round;stroke-linejoin:round;stroke-miterlimit:10;" cx="46.444" cy="227.031" rx="9.661" ry="9.661"/>
				</g>
				<g>
					<text transform="matrix(1 0 0 1 42.6589 231.6885)" style="fill:#FFFFFF; font-family:'BebasNeueBold'; font-size:14px;">1</text>
				</g>
			</g>
		</g>
		<g>
			<circle style="fill:#89525C;" cx="72.704" cy="313.884" r="28.043"/>
			
				<circle style="fill:none;stroke:#080C3E;stroke-width:0.6199;stroke-linecap:round;stroke-linejoin:round;stroke-miterlimit:10;" cx="70.702" cy="312.884" r="28.043"/>
			<g style="opacity:0.51;">
				
					<radialGradient id="SVGID_00000054959989087473232510000012896505493920412586_" cx="73.5499" cy="299.9103" r="12.577" gradientUnits="userSpaceOnUse">
					<stop  offset="0" style="stop-color:#D55925"/>
					<stop  offset="1" style="stop-color:#D55925;stop-opacity:0"/>
				</radialGradient>
				<circle style="fill:url(#SVGID_00000054959989087473232510000012896505493920412586_);" cx="73.55" cy="299.91" r="12.577"/>
				<path style="fill:#592E37;" d="M77.438,299.91c0,2.148-1.741,3.888-3.889,3.888c-2.147,0-3.888-1.741-3.888-3.888
					c0-2.148,1.741-3.889,3.888-3.889C75.698,296.022,77.438,297.763,77.438,299.91z"/>
				<path style="fill:#A0737E;" d="M71.888,299.91c0-0.918,0.744-1.662,1.662-1.662c0.918,0,1.662,0.744,1.662,1.662
					s-0.744,1.662-1.662,1.662C72.632,301.572,71.888,300.828,71.888,299.91z"/>
			</g>
			<g style="opacity:0.51;">
				
					<radialGradient id="SVGID_00000026122306508366783530000002087518383091133097_" cx="59.6002" cy="318.72" r="10.147" gradientUnits="userSpaceOnUse">
					<stop  offset="0" style="stop-color:#D55925"/>
					<stop  offset="1" style="stop-color:#D55925;stop-opacity:0"/>
				</radialGradient>
				<circle style="fill:url(#SVGID_00000026122306508366783530000002087518383091133097_);" cx="59.6" cy="318.72" r="10.147"/>
				<path style="fill:#592E37;" d="M62.737,318.72c0,1.733-1.405,3.137-3.137,3.137c-1.733,0-3.137-1.405-3.137-3.137
					c0-1.733,1.405-3.137,3.137-3.137C61.333,315.583,62.737,316.987,62.737,318.72z"/>
				<path style="fill:#A0737E;" d="M58.259,318.72c0-0.741,0.6-1.341,1.341-1.341c0.741,0,1.341,0.6,1.341,1.341
					s-0.6,1.341-1.341,1.341C58.86,320.061,58.259,319.461,58.259,318.72z"/>
			</g>
			<g style="opacity:0.51;">
				
					<radialGradient id="SVGID_00000052806597897822428720000012737449280525878923_" cx="79.4049" cy="318.72" r="14.8802" gradientUnits="userSpaceOnUse">
					<stop  offset="0" style="stop-color:#D55925"/>
					<stop  offset="1" style="stop-color:#D55925;stop-opacity:0"/>
				</radialGradient>
				<circle style="fill:url(#SVGID_00000052806597897822428720000012737449280525878923_);" cx="79.405" cy="318.72" r="14.88"/>
				<path style="fill:#592E37;" d="M84.006,318.72c0,2.541-2.06,4.601-4.601,4.601c-2.541,0-4.601-2.06-4.601-4.601
					c0-2.541,2.06-4.601,4.601-4.601C81.946,314.119,84.006,316.179,84.006,318.72z"/>
				<circle style="fill:#A0737E;" cx="79.405" cy="318.72" r="1.967"/>
			</g>
			<g>
				<text transform="matrix(1 0 0 1 111.0766 303.7915)" style="fill:#080C3E; font-family:'BebasNeueBold'; font-size:13px;">PUSTULE</text>
			</g>
			<circle style="fill:#FF92B5;" cx="106.252" cy="298.643" r="1.584"/>
			<rect x="111" y="309.902" style="fill:none;" width="65.786" height="30.209"/>
			<text transform="matrix(1 0 0 1 111.0002 312.8695)"><tspan x="0" y="0" style="fill:#423F3F; font-family:'Montserrat-Regular'; font-size:4px;">Lorem ipsum Lorem ipsum </tspan><tspan x="0" y="7" style="fill:#423F3F; font-family:'Montserrat-Regular'; font-size:4px;">Lorem ipsum dolor sit amet, </tspan><tspan x="0" y="14" style="fill:#423F3F; font-family:'Montserrat-Regular'; font-size:4px;">consectetuer adipiscing elit, </tspan></text>
			<g>
				<g>
					
						<ellipse transform="matrix(0.7071 -0.7071 0.7071 0.7071 -196.0697 119.6901)" style="fill:#B3D2DC;" cx="46.444" cy="296.522" rx="9.661" ry="9.661"/>
					
						<ellipse transform="matrix(0.7071 -0.7071 0.7071 0.7071 -195.3621 119.397)" style="fill:none;stroke:#080C3E;stroke-width:0.6199;stroke-linecap:round;stroke-linejoin:round;stroke-miterlimit:10;" cx="46.444" cy="295.521" rx="9.661" ry="9.661"/>
				</g>
				<g>
					<text transform="matrix(1 0 0 1 43.6595 300.1792)" style="fill:#FFFFFF; font-family:'BebasNeueBold'; font-size:14px;">2</text>
				</g>
			</g>
		</g>
		<g>
			
				<ellipse transform="matrix(0.1616 -0.9868 0.9868 0.1616 -313.9886 390.2702)" style="fill:#89525C;" cx="72.704" cy="379.937" rx="28.043" ry="28.044"/>
			
				<ellipse transform="matrix(0.1616 -0.9869 0.9869 0.1616 -314.6786 387.4664)" style="fill:none;stroke:#080C3E;stroke-width:0.6199;stroke-linecap:round;stroke-linejoin:round;stroke-miterlimit:10;" cx="70.702" cy="378.936" rx="28.043" ry="28.044"/>
			<g style="opacity:0.51;">
				
					<radialGradient id="SVGID_00000088119739851159558280000008400515799158116492_" cx="71.8878" cy="379.9366" r="26.4445" gradientUnits="userSpaceOnUse">
					<stop  offset="0" style="stop-color:#D55925"/>
					<stop  offset="1" style="stop-color:#D55925;stop-opacity:0"/>
				</radialGradient>
				<circle style="fill:url(#SVGID_00000088119739851159558280000008400515799158116492_);" cx="71.888" cy="379.937" r="26.444"/>
				<path style="fill:#592E37;" d="M77.603,374.293c8.641,5.333-5.445,20.664-12.394,10.347
					c-5.173-7.681,3.246-13.931,10.806-11.112C76.613,373.751,77.141,374.007,77.603,374.293z"/>
				<path style="fill:#754651;" d="M77.068,373.816c7.837,4.836-4.939,18.741-11.24,9.384c-4.692-6.966,2.944-12.634,9.801-10.078
					C76.17,373.324,76.649,373.557,77.068,373.816z"/>
			</g>
			<g>
				<text transform="matrix(1 0 0 1 111.0766 369.6934)" style="fill:#080C3E; font-family:'BebasNeueBold'; font-size:13px;">NODULE</text>
			</g>
			<circle style="fill:#FF92B5;" cx="106.252" cy="364.544" r="1.584"/>
			<rect x="111" y="375.804" style="fill:none;" width="61.103" height="30.577"/>
			<text transform="matrix(1 0 0 1 111.0002 378.7713)"><tspan x="0" y="0" style="fill:#423F3F; font-family:'Montserrat-Regular'; font-size:4px;">Lorem ipsum Lorem ipsum  </tspan><tspan x="0" y="7" style="fill:#423F3F; font-family:'Montserrat-Regular'; font-size:4px;">dconsectetuer adipiscing elit, </tspan><tspan x="0" y="14" style="fill:#423F3F; font-family:'Montserrat-Regular'; font-size:4px;">Lorem ipsum dolor sit amet, </tspan><tspan x="0" y="21" style="fill:#423F3F; font-family:'Montserrat-Regular'; font-size:4px;">consectetue. </tspan></text>
			<g>
				<g>
					
						<ellipse transform="matrix(0.7071 -0.7071 0.7071 0.7071 -243.0848 139.1644)" style="fill:#F9C0D5;" cx="46.444" cy="363.012" rx="9.661" ry="9.661"/>
					
						<ellipse transform="matrix(0.7071 -0.7071 0.7071 0.7071 -242.3773 138.8714)" style="fill:none;stroke:#080C3E;stroke-width:0.6199;stroke-linecap:round;stroke-linejoin:round;stroke-miterlimit:10;" cx="46.444" cy="362.011" rx="9.661" ry="9.661"/>
				</g>
				<g>
					<text transform="matrix(1 0 0 1 42.6589 366.6687)" style="fill:#FFFFFF; font-family:'BebasNeueBold'; font-size:14px;">3</text>
				</g>
			</g>
		</g>
		<g>
			<circle style="fill:#89525C;" cx="72.704" cy="445.989" r="28.043"/>
			
				<circle style="fill:none;stroke:#080C3E;stroke-width:0.6199;stroke-linecap:round;stroke-linejoin:round;stroke-miterlimit:10;" cx="70.702" cy="444.988" r="28.043"/>
			<g style="opacity:0.51;">
				
					<radialGradient id="SVGID_00000063629398539450031190000016213715639809083307_" cx="78.2784" cy="456.2201" r="5.0299" gradientUnits="userSpaceOnUse">
					<stop  offset="0" style="stop-color:#1A0B04"/>
					<stop  offset="1" style="stop-color:#1A0B04;stop-opacity:0"/>
				</radialGradient>
				<path style="fill:url(#SVGID_00000063629398539450031190000016213715639809083307_);" d="M83.308,456.22
					c0,2.778-2.252,5.03-5.03,5.03c-2.778,0-5.03-2.252-5.03-5.03s2.252-5.03,5.03-5.03C81.056,451.19,83.308,453.442,83.308,456.22
					z"/>
				<path style="fill:#281318;" d="M79.834,456.22c0,0.859-0.696,1.555-1.555,1.555c-0.859,0-1.555-0.696-1.555-1.555
					s0.696-1.555,1.555-1.555C79.137,454.665,79.834,455.361,79.834,456.22z"/>
			</g>
			<g style="opacity:0.51;">
				
					<radialGradient id="SVGID_00000039854217797951096620000017795816340300545463_" cx="65.1092" cy="434.4958" r="0.8861" gradientUnits="userSpaceOnUse">
					<stop  offset="0" style="stop-color:#1A0B04"/>
					<stop  offset="1" style="stop-color:#1A0B04;stop-opacity:0"/>
				</radialGradient>
				<path style="fill:url(#SVGID_00000039854217797951096620000017795816340300545463_);" d="M65.995,434.496
					c0,0.489-0.397,0.886-0.886,0.886c-0.489,0-0.886-0.397-0.886-0.886c0-0.489,0.397-0.886,0.886-0.886
					C65.599,433.61,65.995,434.006,65.995,434.496z"/>
				<path style="fill:#281318;" d="M65.383,434.496c0,0.151-0.123,0.274-0.274,0.274s-0.274-0.123-0.274-0.274
					c0-0.151,0.123-0.274,0.274-0.274S65.383,434.345,65.383,434.496z"/>
			</g>
			<g style="opacity:0.51;">
				
					<radialGradient id="SVGID_00000046297712594488190400000013502435407029724077_" cx="64.4005" cy="459.9574" r="1.1724" gradientUnits="userSpaceOnUse">
					<stop  offset="0" style="stop-color:#1A0B04"/>
					<stop  offset="1" style="stop-color:#1A0B04;stop-opacity:0"/>
				</radialGradient>
				<path style="fill:url(#SVGID_00000046297712594488190400000013502435407029724077_);" d="M65.573,459.957
					c0,0.647-0.525,1.172-1.172,1.172c-0.647,0-1.172-0.525-1.172-1.172s0.525-1.172,1.172-1.172
					C65.048,458.785,65.573,459.31,65.573,459.957z"/>
				<path style="fill:#281318;" d="M64.763,459.957c0,0.2-0.162,0.362-0.363,0.362c-0.2,0-0.362-0.162-0.362-0.362
					s0.162-0.362,0.362-0.362C64.601,459.595,64.763,459.757,64.763,459.957z"/>
			</g>
			<g style="opacity:0.51;">
				
					<radialGradient id="SVGID_00000016076663943382024880000014529998532624113060_" cx="85.512" cy="446.8506" r="1.5107" gradientUnits="userSpaceOnUse">
					<stop  offset="0" style="stop-color:#1A0B04"/>
					<stop  offset="1" style="stop-color:#1A0B04;stop-opacity:0"/>
				</radialGradient>
				<path style="fill:url(#SVGID_00000016076663943382024880000014529998532624113060_);" d="M87.023,446.851
					c0,0.834-0.676,1.511-1.511,1.511c-0.834,0-1.511-0.676-1.511-1.511c0-0.834,0.676-1.511,1.511-1.511
					C86.346,445.34,87.023,446.016,87.023,446.851z"/>
				<path style="fill:#281318;" d="M85.979,446.851c0,0.258-0.209,0.467-0.467,0.467c-0.258,0-0.467-0.209-0.467-0.467
					c0-0.258,0.209-0.467,0.467-0.467C85.77,446.384,85.979,446.593,85.979,446.851z"/>
			</g>
			<g style="opacity:0.51;">
				
					<radialGradient id="SVGID_00000036221010728996780200000013933015992531665064_" cx="62.1158" cy="447.7007" r="7.5455" gradientUnits="userSpaceOnUse">
					<stop  offset="0" style="stop-color:#1A0B04"/>
					<stop  offset="1" style="stop-color:#1A0B04;stop-opacity:0"/>
				</radialGradient>
				<circle style="fill:url(#SVGID_00000036221010728996780200000013933015992531665064_);" cx="62.116" cy="447.701" r="7.546"/>
				<path style="fill:#281318;" d="M64.449,447.701c0,1.288-1.044,2.333-2.333,2.333c-1.288,0-2.333-1.044-2.333-2.333
					c0-1.288,1.044-2.333,2.333-2.333C63.404,445.368,64.449,446.412,64.449,447.701z"/>
			</g>
			<g style="opacity:0.51;">
				
					<radialGradient id="SVGID_00000036951292271334988470000013065558106522634124_" cx="76.4038" cy="436.7336" r="7.2378" gradientUnits="userSpaceOnUse">
					<stop  offset="0" style="stop-color:#1A0B04"/>
					<stop  offset="1" style="stop-color:#1A0B04;stop-opacity:0"/>
				</radialGradient>
				<circle style="fill:url(#SVGID_00000036951292271334988470000013065558106522634124_);" cx="76.404" cy="436.734" r="7.238"/>
				<path style="fill:#281318;" d="M78.642,436.734c0,1.236-1.002,2.238-2.238,2.238s-2.238-1.002-2.238-2.238
					s1.002-2.238,2.238-2.238S78.642,435.498,78.642,436.734z"/>
			</g>
			<g>
				<text transform="matrix(1 0 0 1 111.0766 437.2418)" style="fill:#080C3E; font-family:'BebasNeueBold'; font-size:13px;">BLACK HEAD</text>
			</g>
			<circle style="fill:#FF92B5;" cx="106.252" cy="432.093" r="1.584"/>
			<rect x="111" y="443.352" style="fill:none;" width="108.667" height="30.209"/>
			<text transform="matrix(1 0 0 1 111.0002 446.3203)"><tspan x="0" y="0" style="fill:#423F3F; font-family:'Montserrat-Regular'; font-size:4px;">Lorem ipsum Lorem ipsum Lorem ipsum dolor sit </tspan><tspan x="0" y="7" style="fill:#423F3F; font-family:'Montserrat-Regular'; font-size:4px;">amet, consectetuer adipiscing elit, Lorem ipsum dolor </tspan><tspan x="0" y="14" style="fill:#423F3F; font-family:'Montserrat-Regular'; font-size:4px;">sit amet, consectetuer adipiscing elit, sed diam </tspan><tspan x="0" y="21" style="fill:#423F3F; font-family:'Montserrat-Regular'; font-size:4px;">nonummy nibh </tspan></text>
			<g>
				<g>
					
						<ellipse transform="matrix(0.7071 -0.7071 0.7071 0.7071 -291.5151 159.2249)" style="fill:#B3D2DC;" cx="46.444" cy="431.502" rx="9.661" ry="9.661"/>
					
						<ellipse transform="matrix(0.7071 -0.7071 0.7071 0.7071 -290.8076 158.9318)" style="fill:none;stroke:#080C3E;stroke-width:0.6199;stroke-linecap:round;stroke-linejoin:round;stroke-miterlimit:10;" cx="46.444" cy="430.502" rx="9.661" ry="9.661"/>
				</g>
				<g>
					<text transform="matrix(1 0 0 1 42.6589 435.1594)" style="fill:#FFFFFF; font-family:'BebasNeueBold'; font-size:14px;">4</text>
				</g>
			</g>
		</g>
		<g>
			
				<polyline style="fill:none;stroke:#080C3E;stroke-width:0.5;stroke-linecap:round;stroke-linejoin:round;stroke-miterlimit:10;" points="
				311.667,176.981 294.337,176.981 294.337,212.367 			"/>
			<path style="fill:#080C3E;" d="M310.243,176.981c0-0.786,0.637-1.424,1.424-1.424s1.424,0.637,1.424,1.424
				c0,0.786-0.637,1.424-1.424,1.424S310.243,177.767,310.243,176.981z"/>
			<circle style="fill:#080C3E;" cx="181.026" cy="193.552" r="1.884"/>
			<g>
				<rect x="273.351" y="220.048" style="fill:none;" width="55.215" height="64.157"/>
				<text transform="matrix(1 0 0 1 273.351 224.5)"><tspan x="0" y="0" style="fill:#FF92B5; font-family:'Montserrat-Regular'; font-size:6px;">Lorem ipsum   </tspan><tspan x="0" y="8" style="fill:#FF92B5; font-family:'Montserrat-Regular'; font-size:6px;">dconsectetuer </tspan><tspan x="0" y="16" style="fill:#FF92B5; font-family:'Montserrat-Regular'; font-size:6px;">adipiscing elit, </tspan><tspan x="0" y="24" style="fill:#FF92B5; font-family:'Montserrat-Regular'; font-size:6px;">Lorem ipsum </tspan><tspan x="0" y="32" style="fill:#FF92B5; font-family:'Montserrat-Bold'; font-size:6px;">dolor sit amet, </tspan><tspan x="0" y="40" style="fill:#FF92B5; font-family:'Montserrat-Bold'; font-size:6px;">consectetue.</tspan></text>
				<g>
					<path style="fill:#FFFFFF;" d="M287.877,273.771c0,1.162-0.942,2.104-2.105,2.104c-1.162,0-2.104-0.942-2.104-2.104
						s0.942-2.104,2.104-2.104C286.935,271.667,287.877,272.609,287.877,273.771z"/>
					<path style="fill:#FFFFFF;" d="M296.338,273.771c0,1.162-0.942,2.104-2.104,2.104c-1.162,0-2.104-0.942-2.104-2.104
						s0.942-2.104,2.104-2.104C295.396,271.667,296.338,272.609,296.338,273.771z"/>
					<path style="fill:#FFFFFF;" d="M304.8,273.771c0,1.162-0.942,2.104-2.104,2.104c-1.162,0-2.104-0.942-2.104-2.104
						s0.942-2.104,2.104-2.104C303.857,271.667,304.8,272.609,304.8,273.771z"/>
				</g>
			</g>
			<g>
				<g>
					
						<line style="fill:none;stroke:#080C3E;stroke-width:0.5;stroke-linecap:round;stroke-linejoin:round;" x1="294.337" y1="193.434" x2="292.837" y2="193.434"/>
					
						<line style="fill:none;stroke:#080C3E;stroke-width:0.5;stroke-linecap:round;stroke-linejoin:round;stroke-dasharray:3.0573,3.0573;" x1="289.78" y1="193.434" x2="187.362" y2="193.434"/>
					
						<line style="fill:none;stroke:#080C3E;stroke-width:0.5;stroke-linecap:round;stroke-linejoin:round;" x1="185.833" y1="193.434" x2="184.333" y2="193.434"/>
				</g>
			</g>
		</g>
	</g>
	<g>
		<g>
			<path style="fill:#0070A8;" d="M545.671,73.599l115.471,0V49.8H545.671c-6.572,0-11.9,5.328-11.9,11.9l0,0
				C533.772,68.272,539.099,73.599,545.671,73.599z"/>
			<rect x="666.146" y="49.8" style="fill:#FF92B5;" width="3.002" height="23.799"/>
			<rect x="673.322" y="49.8" style="fill:#0070A8;" width="3.002" height="23.799"/>
			<rect x="680.498" y="49.8" style="fill:#B3D2DC;" width="3.002" height="23.799"/>
			<text transform="matrix(1 0 0 1 554.1011 70.6081)" style="fill:#FFFFFF; font-family:'BebasNeueBold'; font-size:24px;">TREATMENT</text>
		</g>
		<g>
			
				<ellipse transform="matrix(0.6029 -0.7978 0.7978 0.6029 141.245 542.6478)" style="fill:#CCE6ED;" cx="615.746" cy="129.435" rx="34.692" ry="34.692"/>
			
				<ellipse transform="matrix(0.7071 -0.7071 0.7071 0.7071 89.6526 471.3073)" style="fill:none;stroke:#080C3E;stroke-width:0.7669;stroke-linecap:round;stroke-linejoin:round;stroke-miterlimit:10;" cx="613.745" cy="127.433" rx="34.692" ry="34.692"/>
			<g>
				<text transform="matrix(1 0 0 1 585.4999 178.4048)" style="fill:#080C3E; font-family:'BebasNeueBold'; font-size:13px;">ANTIBIOTICS</text>
			</g>
			<g>
				<path style="fill:#0070A8;" d="M608.362,144.99L608.362,144.99c-5.333,1.344-10.797-1.92-12.141-7.253l-4.562-18.101
					c-1.344-5.333,1.92-10.796,7.253-12.14l0,0c5.333-1.344,10.796,1.92,12.141,7.253l4.562,18.101
					C616.959,138.182,613.695,143.645,608.362,144.99z"/>
				<path style="fill:#FF92B5;" d="M613.254,123.481l2.361,9.368c1.344,5.333-1.92,10.796-7.253,12.141l0,0
					c-5.333,1.344-10.797-1.92-12.141-7.253l-2.361-9.368L613.254,123.481z"/>
				
					<path style="fill:none;stroke:#080C3E;stroke-width:0.6199;stroke-linecap:round;stroke-linejoin:round;stroke-miterlimit:10;" d="
					M609.577,145.715L609.577,145.715c-5.333,1.344-10.797-1.92-12.141-7.253l-4.562-18.101c-1.344-5.333,1.92-10.796,7.253-12.14h0
					c5.333-1.344,10.796,1.92,12.141,7.253l4.561,18.101C618.174,138.908,614.91,144.371,609.577,145.715z"/>
				
					<line style="fill:none;stroke:#080C3E;stroke-width:0.6199;stroke-linecap:round;stroke-linejoin:round;stroke-miterlimit:10;" x1="613.254" y1="123.481" x2="597.741" y2="127.39"/>
			</g>
			<g>
				<path style="fill:#0070A8;" d="M636.669,122.306L636.669,122.306c1.621,1.908,1.386,4.794-0.522,6.415l-6.474,5.5
					c-1.907,1.621-4.794,1.386-6.415-0.522l0,0c-1.621-1.908-1.386-4.794,0.522-6.415l6.474-5.5
					C632.162,120.164,635.048,120.399,636.669,122.306z"/>
				<path style="fill:#FF92B5;" d="M626.904,124.631l3.351-2.847c1.908-1.621,4.794-1.386,6.415,0.522l0,0
					c1.621,1.908,1.386,4.794-0.522,6.415l-3.351,2.847L626.904,124.631z"/>
				
					<path style="fill:none;stroke:#080C3E;stroke-width:0.6199;stroke-linecap:round;stroke-linejoin:round;stroke-miterlimit:10;" d="
					M636.721,121.664L636.721,121.664c1.621,1.908,1.386,4.794-0.522,6.415l-6.474,5.5c-1.907,1.621-4.794,1.386-6.415-0.522l0,0
					c-1.621-1.907-1.386-4.794,0.522-6.415l6.474-5.5C632.214,119.522,635.101,119.757,636.721,121.664z"/>
				
					<line style="fill:none;stroke:#080C3E;stroke-width:0.6199;stroke-linecap:round;stroke-linejoin:round;stroke-miterlimit:10;" x1="626.904" y1="124.631" x2="631.617" y2="130.18"/>
			</g>
		</g>
		<g>
			<circle style="fill:#CCE6ED;" cx="615.746" cy="227.338" r="34.692"/>
			
				<ellipse transform="matrix(0.2264 -0.974 0.974 0.2264 256.0182 771.5747)" style="fill:none;stroke:#080C3E;stroke-width:0.7669;stroke-linecap:round;stroke-linejoin:round;stroke-miterlimit:10;" cx="613.745" cy="224.614" rx="34.692" ry="34.692"/>
			<g>
				<text transform="matrix(1 0 0 1 603.4611 275.5856)" style="fill:#080C3E; font-family:'BebasNeueBold'; font-size:13px;">DIET</text>
			</g>
			<g>
				<g>
					<g>
						<path style="fill:#FF92B5;" d="M615.144,243.879c2.935,0.76,3.699,2.855,6.493,1.677c1.962-0.827,3.686-2.362,4.623-4.274
							c2.959-6.039,4.77-12.374,3.769-19.852c-0.197-1.469-0.764-2.887-1.548-4.144c-1.954-3.135-6.066-4.746-9.63-3.772
							c-1.361,0.372-2.635,1.077-4.036,1.243c-3.512,0.417-7.716-0.683-11.252-0.66c-3.537,0.024-6.435,3.246-7.161,6.707
							c-0.727,3.462,0.667,8.873,1.937,12.174c1.39,3.615,3.181,7.108,5.697,10.053
							C608.656,248.442,611.271,243.917,615.144,243.879"/>
					</g>
					<g>
						<g>
							<path style="fill:#0070A8;" d="M612.893,215.689c-2.433-6.263-0.534-10.231,3.78-16.249c0.836-1.166-1.21-2.657-1.952-1.425
								c-3.385,5.616-6.721,13.19-1.956,18.573c0.408,0.461,0.603,0.194,0.375-0.392L612.893,215.689z"/>
						</g>
					</g>
					<g>
						<path style="fill:#F9BDD3;" d="M620.872,233.568c0.622-1.557,0.844-3.428,0.881-5.285c0.038-1.878-0.624-3.865-0.732-5.764
							c-0.121-2.137,3.341-1.388,4.216,0.717c2.005,4.823,0.226,9.445-2.211,12.107
							C622.279,236.157,620.449,234.624,620.872,233.568L620.872,233.568z"/>
					</g>
					<g>
						<path style="fill:#F9BDD3;" d="M604.72,219.457c1.46-0.267,1.078-2.545-0.388-2.276
							C602.871,217.448,603.253,219.725,604.72,219.457L604.72,219.457z"/>
					</g>
				</g>
			</g>
			<g>
				<g>
					<path style="fill:#080C3E;" d="M616.116,244.984c1.556,0.514,2.948,1.852,4.577,2.086c1.397,0.201,2.847-0.598,3.941-1.382
						c3.103-2.222,4.475-6.514,5.534-10.017c2.007-6.639,3.22-17.885-4.8-21.036c-4.232-1.663-7.659,1.062-11.888,0.961
						c-3.679-0.087-8.213-1.797-11.698-0.07c-7.287,3.611-4.715,13.482-2.354,19.344c1.558,3.869,3.967,9.289,7.823,11.425
						c3.128,1.732,5.777-0.981,8.892-1.17c0.314-0.019,0.323-0.512,0.006-0.492c-2.971,0.18-5.684,2.842-8.645,1.241
						c-4.09-2.213-6.648-8.395-8.151-12.557c-1.388-3.845-2.84-8.825-1.311-12.81c1.067-2.781,3.459-5.005,6.519-5.163
						c2.143-0.111,4.337,0.358,6.463,0.568c1.873,0.185,3.826,0.362,5.679-0.072c2.535-0.594,4.459-1.759,7.181-1.149
						c6.077,1.363,7.353,7.548,7.157,12.936c-0.174,4.79-1.555,9.506-3.638,13.806c-1.078,2.225-2.943,4.626-5.531,5.168
						c-2.01,0.421-3.842-1.265-5.699-1.825C616.04,244.735,615.983,244.941,616.116,244.984L616.116,244.984z"/>
				</g>
			</g>
		</g>
		<g>
			
				<ellipse transform="matrix(0.2607 -0.9654 0.9654 0.2607 142.538 833.8599)" style="fill:#CCE6ED;" cx="615.746" cy="323.858" rx="34.692" ry="34.692"/>
			
				<circle style="fill:none;stroke:#080C3E;stroke-width:0.7669;stroke-linecap:round;stroke-linejoin:round;stroke-miterlimit:10;" cx="613.745" cy="321.795" r="34.692"/>
			<g>
				<text transform="matrix(1 0 0 1 588.5017 372.7665)" style="fill:#080C3E; font-family:'BebasNeueBold'; font-size:13px;">FACE MASK</text>
			</g>
			<path style="fill:#FF92B5;" d="M631.647,318.313l-3.986-0.989l3.184-2.148c-2.695-8.2-9.561-14.031-17.61-14.031
				c-7.999,0-14.828,5.759-17.558,13.878l3.41,2.3l-4.278,1.061c-0.265,1.452-0.406,2.955-0.406,4.497
				c0,5.247,1.611,10.061,4.293,13.816l4.645,1.29l-2.295,1.457c3.285,3.224,7.538,5.173,12.188,5.173
				c4.706,0,9.004-1.997,12.305-5.29l-2.111-1.34l4.266-1.185c2.728-3.771,4.372-8.624,4.372-13.922
				C632.068,321.315,631.92,319.787,631.647,318.313z M600.013,319.978c0-2.987,2.422-5.409,5.409-5.409
				c2.987,0,5.409,2.422,5.409,5.409s-2.422,5.409-5.409,5.409C602.435,325.387,600.013,322.966,600.013,319.978z M616.24,327.188
				c0,1.494-1.211,2.705-2.705,2.705c-1.494,0-2.705-1.211-2.705-2.705H616.24z M613.372,338.609c-3.319,0-6.01-1.076-6.01-2.404
				c0-1.328,2.691-2.404,6.01-2.404c3.319,0,6.01,1.076,6.01,2.404C619.382,337.533,616.691,338.609,613.372,338.609z
				 M621.049,325.387c-2.987,0-5.409-2.422-5.409-5.409s2.422-5.409,5.409-5.409c2.987,0,5.409,2.422,5.409,5.409
				S624.037,325.387,621.049,325.387z"/>
			
				<path style="fill:none;stroke:#080C3E;stroke-width:0.6199;stroke-linecap:round;stroke-linejoin:round;stroke-miterlimit:10;" d="
				M632.648,318.313l-3.986-0.989l3.184-2.148c-2.695-8.2-9.561-14.031-17.61-14.031c-7.999,0-14.828,5.759-17.558,13.878l3.41,2.3
				l-4.278,1.061c-0.265,1.452-0.406,2.955-0.406,4.497c0,5.247,1.611,10.061,4.293,13.816l4.645,1.29l-2.295,1.457
				c3.285,3.224,7.538,5.173,12.188,5.173c4.706,0,9.005-1.997,12.305-5.29l-2.111-1.34l4.266-1.185
				c2.728-3.771,4.372-8.624,4.372-13.922C633.068,321.315,632.921,319.787,632.648,318.313z M601.013,319.978
				c0-2.987,2.422-5.409,5.409-5.409s5.409,2.422,5.409,5.409s-2.422,5.409-5.409,5.409S601.013,322.966,601.013,319.978z
				 M617.241,327.188c0,1.494-1.211,2.705-2.705,2.705c-1.494,0-2.705-1.211-2.705-2.705H617.241z M614.373,338.609
				c-3.319,0-6.01-1.076-6.01-2.404c0-1.328,2.691-2.404,6.01-2.404c3.319,0,6.01,1.076,6.01,2.404
				C620.383,337.533,617.692,338.609,614.373,338.609z M622.05,325.387c-2.987,0-5.409-2.422-5.409-5.409s2.422-5.409,5.409-5.409
				c2.987,0,5.409,2.422,5.409,5.409S625.037,325.387,622.05,325.387z"/>
			
				<line style="fill:none;stroke:#080C3E;stroke-width:0.5;stroke-linecap:round;stroke-linejoin:round;stroke-miterlimit:10;stroke-dasharray:3;" x1="614.236" y1="301.146" x2="614.236" y2="312.575"/>
			
				<line style="fill:none;stroke:#080C3E;stroke-width:0.5;stroke-linecap:round;stroke-linejoin:round;stroke-miterlimit:10;stroke-dasharray:3;" x1="596.202" y1="329.009" x2="604.526" y2="329.009"/>
			
				<line style="fill:none;stroke:#080C3E;stroke-width:0.5;stroke-linecap:round;stroke-linejoin:round;stroke-miterlimit:10;stroke-dasharray:3;" x1="624.098" y1="329.009" x2="632.422" y2="329.009"/>
		</g>
		<g>
			
				<ellipse transform="matrix(0.6029 -0.7978 0.7978 0.6029 -91.6723 658.5776)" style="fill:#CCE6ED;" cx="615.746" cy="421.379" rx="34.692" ry="34.692"/>
			
				<ellipse transform="matrix(0.2264 -0.974 0.974 0.2264 66.7027 921.9355)" style="fill:none;stroke:#080C3E;stroke-width:0.7669;stroke-linecap:round;stroke-linejoin:round;stroke-miterlimit:10;" cx="613.745" cy="418.976" rx="34.692" ry="34.692"/>
			<g>
				<text transform="matrix(1 0 0 1 592.5042 469.9473)" style="fill:#080C3E; font-family:'BebasNeueBold'; font-size:13px;">RETINOIDS </text>
			</g>
			<g>
				<g>
					<path style="fill:#0070A8;" d="M598.979,438.53l-7.315-9.806c-1.384-1.855-0.859-4.5,1.129-5.686l32.427-19.345
						c1.163-0.694,2.603-0.735,3.804-0.109l1.526,0.796c0.938,0.489,1.637,1.337,1.938,2.351l0.829,2.794
						c0.422,1.421,0.002,2.958-1.083,3.968l-27.467,25.561C603.066,440.636,600.368,440.392,598.979,438.53z"/>
					
						<rect x="631.498" y="402.488" transform="matrix(0.8015 -0.598 0.598 0.8015 -116.2839 459.3878)" style="fill:#FF92B5;" width="4.748" height="4.748"/>
					
						<path style="fill:none;stroke:#080C3E;stroke-width:0.5609;stroke-linecap:round;stroke-linejoin:round;stroke-miterlimit:10;" d="
						M599.521,439.255l-7.315-9.805c-1.384-1.855-0.859-4.5,1.129-5.686l32.427-19.345c1.163-0.694,2.603-0.735,3.804-0.109
						l1.526,0.796c0.938,0.489,1.637,1.337,1.938,2.351l0.829,2.794c0.422,1.421,0.002,2.958-1.083,3.968l-27.467,25.561
						C603.608,441.362,600.91,441.118,599.521,439.255z"/>
					
						<rect x="632.04" y="403.214" transform="matrix(0.8015 -0.598 0.598 0.8015 -116.6104 459.8555)" style="fill:none;stroke:#080C3E;stroke-width:0.5609;stroke-linecap:round;stroke-linejoin:round;stroke-miterlimit:10;" width="4.748" height="4.748"/>
					
						<line style="fill:none;stroke:#080C3E;stroke-width:0.5609;stroke-linecap:round;stroke-linejoin:round;stroke-miterlimit:10;" x1="591.664" y1="428.724" x2="594.565" y2="426.56"/>
					
						<line style="fill:none;stroke:#080C3E;stroke-width:0.5609;stroke-linecap:round;stroke-linejoin:round;stroke-miterlimit:10;" x1="593.9" y1="431.722" x2="596.801" y2="429.557"/>
					
						<line style="fill:none;stroke:#080C3E;stroke-width:0.5609;stroke-linecap:round;stroke-linejoin:round;stroke-miterlimit:10;" x1="596.136" y1="434.719" x2="599.037" y2="432.555"/>
					
						<line style="fill:none;stroke:#080C3E;stroke-width:0.5609;stroke-linecap:round;stroke-linejoin:round;stroke-miterlimit:10;" x1="598.372" y1="437.716" x2="601.273" y2="435.552"/>
					
						<line style="fill:none;stroke:#080C3E;stroke-width:0.5609;stroke-linecap:round;stroke-linejoin:round;stroke-miterlimit:10;" x1="600.608" y1="440.713" x2="603.509" y2="438.549"/>
					
						<line style="fill:none;stroke:#080C3E;stroke-width:0.5609;stroke-linecap:round;stroke-linejoin:round;stroke-miterlimit:10;" x1="593.334" y1="423.764" x2="605.291" y2="439.792"/>
				</g>
				<path style="fill:#FF92B5;" d="M614.321,414.71c2.871-0.186,5.349,1.99,5.535,4.861c0.186,2.871-1.99,5.349-4.861,5.535
					c-2.871,0.186-5.349-1.99-5.535-4.861C609.274,417.374,611.45,414.896,614.321,414.71z"/>
				
					<path style="fill:none;stroke:#080C3E;stroke-width:0.5609;stroke-linecap:round;stroke-linejoin:round;stroke-miterlimit:10;" d="
					M615.216,414.574c2.871-0.186,5.349,1.99,5.535,4.861c0.186,2.871-1.99,5.349-4.861,5.535c-2.871,0.186-5.349-1.99-5.535-4.861
					C610.169,417.238,612.345,414.76,615.216,414.574z"/>
			</g>
		</g>
	</g>
</g>
</svg>
