<?xml version="1.0" encoding="utf-8"?>
<!-- Generator: Adobe Illustrator 27.5.0, SVG Export Plug-In . SVG Version: 6.00 Build 0)  -->
<svg version="1.1" xmlns="http://www.w3.org/2000/svg" xmlns:xlink="http://www.w3.org/1999/xlink" x="0px" y="0px"
	 viewBox="0 0 500 500" style="enable-background:new 0 0 500 500;" xml:space="preserve">
<g id="Picture">
	<g id="Pinture">
		<path style="fill:#303030;" d="M268.531,274.834l-165.321,44.311c-6.555,1.757-13.293-2.133-15.05-8.688L35.553,114.182
			c-1.757-6.555,2.133-13.293,8.688-15.05l165.321-44.311c6.555-1.757,13.293,2.133,15.05,8.688l52.607,196.275
			C278.976,266.339,275.087,273.077,268.531,274.834z"/>
		
			<path style="fill:#FFFFFF;stroke:#FF95FB;stroke-width:1.5;stroke-linecap:round;stroke-linejoin:round;stroke-miterlimit:10;" d="
			M260.02,287.695L90.246,309.409c-6.731,0.861-12.887-3.898-13.748-10.63L50.72,97.218c-0.861-6.731,3.898-12.886,10.63-13.747
			l169.773-21.714c6.732-0.861,12.886,3.898,13.747,10.63l25.779,201.561C271.51,280.679,266.751,286.834,260.02,287.695z"/>
		<g id="Icons">
			<g>
				<g id="Heart_00000175297675981126484710000009290103688149614778_">
					<path style="fill:#00826F;" d="M104.183,297.462l-2.514-1.261c-2.71-1.358-5.957-3.554-6.892-6.562
						c-0.807-2.598,0.733-5.42,3.425-5.81c2.127-0.308,4.095,0.991,4.716,2.952c0.012,0.012,0.025,0.025,0.039,0.038
						c0.011-0.016,0.02-0.031,0.029-0.046c0.158-2.05,1.778-3.762,3.918-3.947c2.71-0.234,4.853,2.163,4.659,4.876
						c-0.225,3.143-2.888,6.02-5.219,7.96L104.183,297.462z"/>
				</g>
				<path style="fill:none;stroke:#FF95FB;stroke-width:1.5;stroke-linecap:round;stroke-linejoin:round;stroke-miterlimit:10;" d="
					M126.202,280.466c4.471-0.572,8.488,2.04,8.973,5.833c0.161,1.26-0.095,2.489-0.663,3.593l1.493,2.048
					c0.32,0.439-0.027,1.05-0.568,1.001l-3.355-0.308l0.006-0.012c-1.155,0.812-2.563,1.382-4.129,1.582
					c-4.47,0.572-8.488-2.04-8.973-5.833C118.501,284.577,121.731,281.038,126.202,280.466z"/>
				<g>
					
						<polygon style="fill:none;stroke:#FF95FB;stroke-width:1.5;stroke-linecap:round;stroke-linejoin:round;stroke-miterlimit:10;" points="
						150.174,291.11 147.527,284.417 141.757,280.113 157.608,276.701 					"/>
					
						<line style="fill:none;stroke:#FF95FB;stroke-width:1.5;stroke-linecap:round;stroke-linejoin:round;stroke-miterlimit:10;" x1="147.527" y1="284.417" x2="157.608" y2="276.701"/>
				</g>
				<polygon style="fill:#FF95FB;" points="250.543,278.805 244.268,273.85 239.443,280.225 237.682,266.46 248.783,265.04 				"/>
			</g>
			<g>
				<g>
					
						<path style="fill:none;stroke:#FF95FB;stroke-width:1.5;stroke-linecap:round;stroke-linejoin:round;stroke-miterlimit:10;" d="
						M91.116,98.432c0.72,5.629-3.26,10.776-8.888,11.495c-5.629,0.72-10.775-3.26-11.495-8.888
						c-0.72-5.629,3.259-10.775,8.888-11.495C85.249,88.824,90.396,92.803,91.116,98.432z"/>
					<path style="fill:#FF95FB;" d="M73.706,107.036c2.17,2.143,5.262,3.309,8.522,2.892c3.26-0.417,5.958-2.323,7.52-4.944
						c-1.511-2.294-4.023-3.824-6.838-4.035c1.277-0.843,2.047-2.353,1.839-3.974c-0.29-2.27-2.366-3.875-4.636-3.585
						c-2.27,0.29-3.875,2.366-3.585,4.636c0.207,1.621,1.331,2.888,2.78,3.383C76.638,102.322,74.591,104.435,73.706,107.036z"/>
				</g>
				<path style="fill:#FF95FB;" d="M159.514,88.393l-57.874,7.402c-1.364,0.174-2.612-0.79-2.786-2.154l-0.017-0.134
					c-0.174-1.364,0.79-2.612,2.154-2.786l57.874-7.402c1.364-0.174,2.612,0.79,2.786,2.154l0.017,0.134
					C161.843,86.971,160.878,88.218,159.514,88.393z"/>
				<path style="fill:#FF95FB;" d="M124.734,96.088l-23.459,3c-0.937,0.12-1.599,0.976-1.479,1.913
					c0.12,0.937,0.976,1.599,1.913,1.479l23.459-3c0.937-0.12,1.599-0.976,1.479-1.913C126.527,96.63,125.67,95.968,124.734,96.088z
					"/>
			</g>
			<g>
				<path style="fill:none;stroke:#FF95FB;stroke-width:1.5;stroke-linecap:round;stroke-linejoin:round;stroke-miterlimit:10;" d="
					M91.116,98.432c0.72,5.629-3.26,10.776-8.888,11.495c-5.629,0.72-10.775-3.26-11.495-8.888
					c-0.72-5.629,3.259-10.775,8.888-11.495C85.249,88.824,90.396,92.803,91.116,98.432z"/>
				<path style="fill:#FF95FB;" d="M73.706,107.036c2.17,2.143,5.262,3.309,8.522,2.892c3.26-0.417,5.958-2.323,7.52-4.944
					c-1.511-2.294-4.023-3.824-6.838-4.035c1.277-0.843,2.047-2.353,1.839-3.974c-0.29-2.27-2.366-3.875-4.636-3.585
					c-2.27,0.29-3.875,2.366-3.585,4.636c0.207,1.621,1.331,2.888,2.78,3.383C76.638,102.322,74.591,104.435,73.706,107.036z"/>
			</g>
			<g>
				<path style="fill:#FF95FB;" d="M224.407,75.553c0.13,1.016-0.588,1.944-1.604,2.074c-1.016,0.13-1.944-0.588-2.074-1.604
					c-0.13-1.015,0.588-1.944,1.604-2.074S224.277,74.538,224.407,75.553z"/>
				<path style="fill:#FF95FB;" d="M225.268,82.282c0.13,1.015-0.588,1.944-1.604,2.074c-1.015,0.13-1.944-0.588-2.074-1.604
					c-0.13-1.016,0.588-1.944,1.604-2.074C224.21,80.548,225.138,81.266,225.268,82.282z"/>
				<path style="fill:#FF95FB;" d="M226.128,89.01c0.13,1.015-0.588,1.944-1.604,2.074c-1.016,0.13-1.944-0.588-2.074-1.604
					c-0.13-1.016,0.588-1.944,1.604-2.074C225.07,87.276,225.999,87.994,226.128,89.01z"/>
			</g>
		</g>
		<g>
			<path style="fill:none;stroke:#FF95FB;stroke-width:1.5;stroke-linecap:round;stroke-linejoin:round;stroke-miterlimit:10;" d="
				M111.178,128.023c-3.11,4.272-7.868,9.136-8.669,14.556c-0.239,1.617,0.056,3.392,1.156,4.601
				c1.169,1.284,3.645,2.325,5.374,2.423c3.069,0.174,5.15-0.06,7.398,2.193c1.611,1.615,2.575,3.193,2.997,5.479
				c0.799,4.329-0.22,9.043-1.585,13.158c-1.461,4.404-3.525,8.584-5.113,12.944c-0.615,1.689-1.166,3.485-0.869,5.258
				c1.203,7.197,11.914,2.754,15.502,0.475c3.681-2.339,6.767-5.484,9.834-8.585c7.829-7.914,15.763-15.724,23.801-23.426"/>
			<path style="fill:none;stroke:#FF95FB;stroke-width:1.5;stroke-linecap:round;stroke-linejoin:round;stroke-miterlimit:10;" d="
				M168.622,150.996c5.796-5.015,9.43-9.069,14.787-12.303c5.831-3.52,13.204-5.04,19.91-3.847c4.37,0.777,8.31,3.497,10.798,7.172
				c3.075,4.542,4.081,11.021,4.361,16.399c0.485,9.3-4.519,18.538-8.657,26.557c-4.661,9.034-9.838,17.863-13.285,27.463
				c-0.849,2.366-1.42,5.428,0.509,7.04c3.55,2.966,6.769-1.034,9.067-3.415c2.84-2.941,5.402-6.136,7.855-9.402
				c4.877-6.494,9.326-13.329,14.714-19.426c2.32-2.625,5.046-5.23,8.499-5.823"/>
			<path style="fill:none;stroke:#FF95FB;stroke-width:1.5;stroke-linecap:round;stroke-linejoin:round;stroke-miterlimit:10;" d="
				M142.546,109.663c2.305,1.772,2.816,5.165,2.011,7.96c-0.805,2.794-2.659,5.146-4.432,7.45c-1.774,2.305-3.553,4.737-4.163,7.58
				c-0.771,3.595,0.585,7.565,3.393,9.937c4.161,3.514,9.783,2.646,14.12,0.052c4.664-2.79,8.515-6.72,12.571-10.337
				c8.373-7.467,18.082-13.85,29.034-16.283c13.242-2.942,32.766,0.64,35.762,16.298c1.105,5.772,0.474,11.771-1.029,17.452
				c-0.488,1.844-1.07,3.687-1.142,5.592s0.445,3.933,1.843,5.229c1.398,1.297,3.798,1.58,5.191,0.277"/>
			<path style="fill:none;stroke:#FF95FB;stroke-width:1.5;stroke-linecap:round;stroke-linejoin:round;stroke-miterlimit:10;" d="
				M153.564,108.439c1.421,1.096,2.217,2.953,2.03,4.738c-0.359,3.436-3.87,5.736-4.817,9.059c-0.161,0.564-0.24,1.185-0.019,1.728
				c0.391,0.957,1.612,1.343,2.623,1.125c1.01-0.218,1.856-0.885,2.661-1.533c7.708-6.202,15.416-12.403,23.124-18.605"/>
			<path style="fill:none;stroke:#FF95FB;stroke-width:1.5;stroke-linecap:round;stroke-linejoin:round;stroke-miterlimit:10;" d="
				M88.25,232.664c2.502,6.198,10.261,9.446,17.152,8.628c5.347-0.635,10.142-3.532,14.53-6.655
				c12.588-8.958,22.293-20.808,33.114-31.7c2.201-2.216,4.5-4.496,7.428-5.585c5.279-1.964,9.847,1.768,9.626,7.311
				c-0.096,2.418-1.065,4.708-2.099,6.895c-3.719,7.864-8.477,15.196-12.354,22.983c-2.475,4.971-4.62,10.262-4.82,15.812
				c-0.2,5.55,1.854,11.438,6.375,14.662"/>
			<path style="fill:none;stroke:#FF95FB;stroke-width:1.5;stroke-linecap:round;stroke-linejoin:round;stroke-miterlimit:10;" d="
				M91.484,256.532c4.722,3.754,11.289,4.166,17.276,3.433c5.739-0.703,11.666-2.777,17.434-2.067
				c6.317,0.778,9.91,3.115,12.567,8.926"/>
			<path style="fill:none;stroke:#FF95FB;stroke-width:1.5;stroke-linecap:round;stroke-linejoin:round;stroke-miterlimit:10;" d="
				M103.361,118.462c-6.814,7.692-12.697,16.208-17.478,25.304c-2.259,4.298-4.267,9.555-1.95,13.822
				c1.36,2.503,4.019,4.107,6.791,4.764c4.755,1.128,10.334-1.703,13.548,3.147c2.123,3.204,1.202,7.564-0.119,10.888
				c-1.547,3.891-3.093,7.781-4.64,11.672c-1.632,4.105-3.284,8.294-3.581,12.702c-0.297,4.408,0.977,9.152,4.343,12.014
				c3.611,3.069,8.966,3.384,13.468,1.906c4.503-1.477,8.324-4.486,11.912-7.582c18.648-16.088,33.999-35.537,52.959-51.218
				c2.905-2.403,5.868-4.789,9.232-6.492c4.235-2.143,9.424-3.095,13.701-1.038c4.459,2.144,6.467,7.08,6.614,11.801
				c0.143,4.56-1.75,8.92-3.81,12.991c-9.974,19.708-25.086,37.911-27.028,59.914c-0.419,4.74,0.089,10.148,3.752,13.185
				c2.59,2.147,6.297,2.587,9.565,1.789c3.268-0.799,6.164-2.694,8.775-4.816c14.018-11.391,21.217-29.512,35.111-41.052
				c1.384-1.149,3.647-2.154,4.753-0.735"/>
		</g>
		<g>
			<g id="Arm_00000080188836130970901270000003255440817077581958_">
				<g id="Arm_1_00000038392878513994770290000003927821230668651428_">
					<path style="fill:#AD6163;" d="M135.223,224.785c-0.668-14.523-4.406-18.241-9.408-21.96c-8.402,3.4-11.38,3.523-19.412,15.571
						c-5.773,8.628-12.397,19.022-16.609,26.284l3.574,27.968l25.154-3.215c-0.894-1.602-1.787-3.215-2.691-4.817
						c-0.75-1.345-1.5-2.691-2.26-4.037c0,0,6.604-10.394,14.441-21.816l0.976,5.289C133.292,240.048,135.5,230.743,135.223,224.785
						z"/>
				</g>
				<path style="fill:none;stroke:#303030;stroke-width:1.5;stroke-linecap:round;stroke-linejoin:round;stroke-miterlimit:10;" d="
					M107.165,256.532c3.536,0.573,5.766,2.751,7.364,5.752"/>
				
					<path style="fill:#FFFFFF;stroke:#303030;stroke-width:1.5;stroke-linecap:round;stroke-linejoin:round;stroke-miterlimit:10;" d="
					M124.959,201.552c-9.085,2.716-14.361,6.317-19.923,15.143c-5.562,8.827-9.444,15.808-9.444,15.808s2.023,6.044,9.535,12.227
					c7.512,6.184,14.969,8.108,14.969,8.108l7.465-11.582L124.959,201.552z"/>
			</g>
			<g id="Head_00000031930218895052538750000002395394349400359072_">
				<g id="Hair_00000075149293283059920600000013244260371055773349_">
					<path style="fill:#303030;" d="M150.362,193.204c2.404,0.297,4.867,0.189,7.006-0.886c1.91-0.96,3.454-2.641,5.506-3.241
						c1.431-0.419,2.963-0.264,4.437-0.493c3.394-0.528,4.008-3.672,6.263-5.647c2.864-2.509,7.216-1.384,9.47-4.711
						c1.144-1.689,1.468-3.841,1.197-5.863c-0.227-1.689-0.842-3.404-0.411-5.053c0.351-1.346,1.342-2.411,2.215-3.493
						c2.136-2.648,3.783-6.071,3.002-9.382c-1.001-4.247-5.597-6.866-6.771-11.069c-0.29-1.037-0.354-2.123-0.573-3.178
						c-1.167-5.613-6.675-9.029-12.131-9.126c-1.41-5.929-5.917-11.783-12.159-12.962c-3.601-0.68-7.472,0.222-10.402,2.423
						c-0.566,0.425-1.113,0.905-1.784,1.131c-1.397,0.471-2.877-0.262-4.223-0.863c-2.998-1.34-6.327-2.104-9.582-1.666
						c-3.255,0.438-6.415,2.193-8.095,5.014c-1.032,1.732-1.464,3.744-1.88,5.716c-3.476-1.056-7.6,1.13-8.676,4.6
						c-0.453,1.459-0.426,3.063-1.097,4.435c-0.671,1.372-2.519,2.384-3.725,1.447c-0.017,3.157,3.338,5.864,6.42,5.181
						c-2.964,1.876-5.118,4.988-5.831,8.423c-0.882,4.251,0.769,8.005,4.082,10.709c1.168,0.954,2.622,1.935,3.425,3.243
						c0.708,1.154,0.576,2.602,0.324,3.891c-0.536,2.741-2.102,5.456-1.531,8.322c0.342,1.716,1.468,3.195,2.827,4.297
						c1.359,1.102,2.95,1.874,4.525,2.636c-0.963-2.079-0.809-4.638,0.397-6.587c-0.133,3.695,2.61,6.955,5.805,8.816
						c1.679,0.978,3.536,1.685,5.467,1.904c1.909,0.216,3.839-0.047,5.758,0.034c3.016,0.128,5.924,1.099,8.884,1.691
						C149.112,193.022,149.735,193.127,150.362,193.204z"/>
					
						<path style="fill:none;stroke:#303030;stroke-width:1.5;stroke-linecap:round;stroke-linejoin:round;stroke-miterlimit:10;" d="
						M167.961,132.711c3.483-2.523,8.695-2.295,11.944,0.522c3.249,2.817,4.214,7.944,2.211,11.749
						c3.957,1.014,7.282,3.422,7.87,7.764c0.373,2.758-0.641,5.669-2.647,7.597"/>
					
						<ellipse transform="matrix(0.9978 -0.0669 0.0669 0.9978 -9.9993 10.4887)" style="fill:#303030;" cx="151.529" cy="154.469" rx="26.771" ry="25.569"/>
				</g>
				<path style="fill:#AD6163;" d="M155.219,135.91c17.685,3.667,15.757,23.325,15.757,23.325c-1.025,2.356-0.87,2.544-1.29,5.061
					c1.768-2.696,4.552-4.946,7.836-5.432c3.284-0.487,6.975,1.18,8.033,4.181c1.045,2.967-0.757,6.401-3.577,8.023
					c-2.82,1.622-6.813,1.993-10.548,0.396l-0.005-0.003c-1.145,3.11-3.809,6.324-7.776,8.595l2.222,12.709l22.734,4.204
					c0,0-7.519,23.06-37.941,23.683c-30.422,0.623-23.477-19.7-23.477-19.7l17.935-5.505l0.462-11.064
					c-5.573-0.181-22.006-4.111-20.738-25.358c0.255-4.266,1.391-8.243,3.123-11.723l0.001,0
					C135.34,133.197,150.978,134.605,155.219,135.91z"/>
				<path style="fill:none;stroke:#303030;stroke-width:1.5;stroke-linecap:round;stroke-linejoin:round;stroke-miterlimit:10;" d="
					M141.668,167.995c1.906,0.731,3.962,1.127,5.996,0.957c2.034-0.169,4.045-0.928,5.562-2.293"/>
				<g>
					<path style="fill:#00826F;" d="M173.166,171.692c0.13,1.077,1.109,1.845,2.186,1.714c1.077-0.13,1.845-1.109,1.714-2.186
						c-0.13-1.077-1.109-1.844-2.186-1.714C173.803,169.636,173.036,170.615,173.166,171.692z"/>
					
						<path style="fill:none;stroke:#FFFFFF;stroke-width:1.5;stroke-linecap:round;stroke-linejoin:round;stroke-miterlimit:10;" d="
						M180.012,160.296c-0.105-1.045,0.563-2.119,1.546-2.488"/>
					
						<path style="fill:none;stroke:#FFFFFF;stroke-width:1.5;stroke-linecap:round;stroke-linejoin:round;stroke-miterlimit:10;" d="
						M182.74,161.29c-0.28-1.091,0.609-2.02,1.391-2.31"/>
				</g>
				<g>
					<path style="fill:#303030;" d="M157.111,182.525c0,0-5.402,2.326-11.528,1.858l-0.131,3.13
						C145.453,187.514,152.49,187.453,157.111,182.525z"/>
					
						<path style="fill:none;stroke:#303030;stroke-width:1.5;stroke-linecap:round;stroke-linejoin:round;stroke-miterlimit:10;" d="
						M144.877,148.779c0.194,9.478-3.978,9.392-3.033,12.734c0.557,1.973,3.117,1.92,4.555,1.457"/>
					<g>
						<path style="fill:#00826F;" d="M141.023,156.276c0.47-2.911-3.115-6.389-8.098-5.606c-4.992,0.785-5.343,3.706-3.947,4.826
							c1.396,1.12,1.761-0.078,3.293-1.049C133.803,153.476,139.413,153.306,141.023,156.276z"/>
						<g>
							<path style="fill:#FFFFFF;" d="M140.72,156.761c-0.532-2.028-2.397-3.635-4.552-3.923c-2.154-0.288-5.317,0.565-6.047,3.561
								C130.762,159.486,137.575,160.767,140.72,156.761z"/>
							<path style="fill:#303030;" d="M133.82,157.554c0.635,1.483,2.412,2.155,3.969,1.5c1.556-0.654,2.303-2.387,1.668-3.87
								c-0.635-1.483-2.412-2.155-3.969-1.5C133.931,154.338,133.185,156.071,133.82,157.554z"/>
							<polygon style="fill:#FFFFFF;" points="139.672,155.112 136.639,156.369 140.002,156.762 							"/>
							
								<path style="fill:none;stroke:#303030;stroke-width:1.5;stroke-linecap:round;stroke-linejoin:round;stroke-miterlimit:10;" d="
								M130.121,156.398c0.73-2.995,3.892-3.849,6.047-3.561c2.154,0.288,4.02,1.896,4.552,3.923"/>
							
								<path style="fill:none;stroke:#303030;stroke-width:1.5;stroke-linecap:round;stroke-linejoin:round;stroke-miterlimit:10;" d="
								M128.298,154.393c0.251,0.656,0.926,1.125,1.628,1.131"/>
						</g>
						
							<path style="fill:none;stroke:#303030;stroke-width:1.5;stroke-linecap:round;stroke-linejoin:round;stroke-miterlimit:10;" d="
							M138.651,143.046c-3.486-0.19-7.102,1.708-8.914,3.672"/>
					</g>
					<g>
						<path style="fill:#00826F;" d="M149.965,155.046c-0.313-2.932,3.455-6.212,8.389-5.16c4.942,1.054,5.135,3.989,3.681,5.032
							c-1.454,1.043-1.755-0.173-3.232-1.226C157.326,152.64,151.733,152.168,149.965,155.046z"/>
						<g>
							<path style="fill:#FFFFFF;" d="M160.949,156.34c-0.532-2.027-2.397-3.635-4.552-3.923c-2.154-0.288-5.317,0.566-6.047,3.561
								C150.991,159.066,157.804,160.346,160.949,156.34z"/>
							<path style="fill:#303030;" d="M154.049,157.134c0.635,1.483,2.413,2.155,3.969,1.5c1.557-0.654,2.303-2.387,1.668-3.87
								c-0.635-1.483-2.412-2.155-3.969-1.5C154.161,153.918,153.414,155.65,154.049,157.134z"/>
							<polygon style="fill:#FFFFFF;" points="159.901,154.692 156.868,155.949 160.231,156.342 							"/>
							
								<path style="fill:none;stroke:#303030;stroke-width:1.5;stroke-linecap:round;stroke-linejoin:round;stroke-miterlimit:10;" d="
								M150.35,155.978c0.73-2.995,3.892-3.849,6.047-3.561c2.155,0.288,4.02,1.896,4.552,3.923"/>
						</g>
						
							<path style="fill:none;stroke:#303030;stroke-width:1.5;stroke-linecap:round;stroke-linejoin:round;stroke-miterlimit:10;" d="
							M162.688,154.23c-0.433,0.727-1.299,1.171-2.142,1.098"/>
						
							<path style="fill:none;stroke:#303030;stroke-width:1.5;stroke-linecap:round;stroke-linejoin:round;stroke-miterlimit:10;" d="
							M152.486,144.635c2.704-1.162,8.632-0.499,10.856,2.404"/>
					</g>
					<g>
						
							<path style="fill:none;stroke:#303030;stroke-width:1.5;stroke-linecap:round;stroke-linejoin:round;stroke-miterlimit:10;" d="
							M181.491,163.169c-0.807-0.459-2.705-0.691-4.535-0.013c-1.829,0.679-3.248,2.295-3.629,4.133"/>
						
							<path style="fill:none;stroke:#303030;stroke-width:1.5;stroke-linecap:round;stroke-linejoin:round;stroke-miterlimit:10;" d="
							M178.478,165.504c-0.594-0.334-2.649-1.134-4.466,0.079"/>
					</g>
				</g>
				<path style="fill:#303030;" d="M122.182,148.665c3.742,2.729,9.459,2.21,12.413-1.464c0.437-0.543,0.815-1.145,1.353-1.587
					c1.211-0.994,2.94-0.974,4.5-0.826c1.56,0.149,3.227,0.356,4.613-0.375c1.417-0.748,2.194-2.305,2.74-3.811
					c0.584-1.609,1.089-4.296,2.981-4.753c1.454-0.351,3.001-0.31,4.434,0.117c0,0-4.428-9.268-20.139-3.409
					C119.367,138.416,122.182,148.665,122.182,148.665z"/>
			</g>
			<g id="Arm_00000083060343194682993280000002149323014186469020_">
				<path style="fill:#AD6163;" d="M247.497,250.924l-49.394-15.068c0,0-14.025-23.854-4.157-37.536
					c24.252,10.524,49.308,19.432,49.308,19.432L247.497,250.924z"/>
			</g>
			<g id="Chest_00000120534341301158985900000001482802479730178747_">
				
					<path style="fill:#FFFFFF;stroke:#303030;stroke-width:1.5;stroke-linecap:round;stroke-linejoin:round;stroke-miterlimit:10;" d="
					M214.218,243.15l-16.68-4.447c0.503,4.735,0.904,9.501,5.659,19.905l-77.393,9.891c0.082-0.308,0.164-0.616,0.247-0.935
					c3.8-14.184-11.329-18.498-10.374-35.415c0.832-14.811,9.285-30.598,9.285-30.598l15.961-4.879c0,0,0.113,8.525,12.079,8.166
					c11.966-0.359,17.492-12.151,17.492-12.151s11.329,0.411,18.745,1.161c7.426,0.76,30.854,12.942,30.854,12.942
					s-4.868,5.598-6.358,17.831C212.554,234.307,214.218,243.15,214.218,243.15z"/>
				<path style="fill:none;stroke:#303030;stroke-width:1.5;stroke-linecap:round;stroke-linejoin:round;stroke-miterlimit:10;" d="
					M186.211,201.123c-3.676,16.629,1.325,34.773,11.326,37.577"/>
			</g>
		</g>
		
			<rect x="82.862" y="107.761" transform="matrix(0.9919 -0.1269 0.1269 0.9919 -22.2455 21.8846)" style="fill:none;stroke:#FF95FB;stroke-width:1.5;stroke-linecap:round;stroke-linejoin:round;stroke-miterlimit:10;" width="155.644" height="155.644"/>
	</g>
</g>
<g id="Speech_Bubble">
	<g id="Speech_Bubble_00000116227438628205056160000013778945860676355224_">
		
			<path id="Speech_Bubble_00000033367340205189068470000005140359377672332982_" style="fill:#FFFFFF;stroke:#303030;stroke-width:1.5;stroke-linecap:round;stroke-linejoin:round;stroke-miterlimit:10;" d="
			M431.407,39.737c-13.551-8.987-27.731-5.516-36.588,0.358c-9.643,6.395-19.614,23.398-4.71,39.103
			c-0.631,3.312-3.795,5.55-6.456,6.178c-1.352,0.319-0.04,1.858,4.482,2.043c4.113,0.168,7.191-0.69,10.705-2.913
			c9.582,5.182,32.672,5.66,41.725-8.295C446.38,67.249,446.913,50.021,431.407,39.737z"/>
		<g id="Heart_00000168824527652729861930000014134996176593165242_">
			<path style="fill:#00826F;" d="M413.496,74.933l-4.119-2.77c-4.44-2.985-9.632-7.554-10.595-13.029
				c-0.831-4.728,2.496-9.323,7.296-9.402c3.792-0.063,6.945,2.651,7.593,6.223c0.018,0.024,0.038,0.049,0.06,0.075
				c0.022-0.025,0.042-0.049,0.062-0.073c0.735-3.554,3.954-6.187,7.742-6.032c4.797,0.196,8.011,4.872,7.064,9.578
				c-1.097,5.451-6.403,9.891-10.917,12.764L413.496,74.933z"/>
		</g>
	</g>
</g>
<g id="Character">
	<path style="fill:#FFFFFF;stroke:#303030;stroke-width:1.5;stroke-linecap:round;stroke-linejoin:round;stroke-miterlimit:10;" d="
		M312.393,159.052c2.415-0.595,3.883-8.892,3.883-8.892h-4.914L312.393,159.052z"/>
	<g id="Character_00000062878304561592139070000012137494118949624975_">
		<g id="Arm_00000005978115672787655130000008730756875113541252_">
			<path style="fill:#753C40;" d="M209.522,215.293c-0.59,1.003-1.252,1.935-2.169,2.845c-1.133,1.125-2.882,3.085-2.132,4.714
				c1.833,3.986,6.681,0.365,8.017-0.97c0.834-0.833,1.564-3.138,2.162-4.153c1.222-2.077,1.91-4.202,1.943-6.629
				c0.028-2.051-0.316-4.087-0.659-6.109c-0.416,1.311-1.533,2.249-2.5,3.227c-1.346,1.362-2.483,2.93-3.358,4.634
				C210.38,213.721,209.972,214.528,209.522,215.293z"/>
			<g id="Arm_1_00000001625801237747667700000003880623378046617479_">
				<path style="fill:#AD6163;" d="M217.65,175.603c0,0,6.359-8.691,13.847-18.211l0.551,4.673
					c3.979-3.254,6.442-11.241,6.542-16.452c0.244-12.71-2.807-16.174-6.957-19.702c-7.522,2.489-10.128,2.428-17.827,12.474
					c-7.667,10.004-16.99,22.866-19.527,27.693c-2.538,4.828-2.327,9.448,0.768,14.35c3.464,5.486,8.104,10.386,12.312,15.298
					c1.623,1.895,3.289,3.754,4.896,5.663c1.773,2.107,4.348,4.85,3.25,7.85c-0.547,1.495-1.234,2.245-2.005,3.942
					c-0.694,1.528-1.301,3.358-1.697,4.989c-0.801,3.296-2.564,6.63-4.52,9.393c-0.491,0.693-1.014,1.37-1.393,2.13
					c-0.379,0.76-0.61,1.624-0.469,2.461c0.146,0.869,0.836,2.009,1.644,2.407c-0.425,1.033-0.239,2.292,0.466,3.159
					s1.9,1.305,2.998,1.099c-0.033,0.779-0.371,1.908,0.728,2.978c1.303,1.269,2.674,0.939,4.141,0.219
					c1.298-0.636,2.323-1.741,3.327-2.753c1.5-1.512,2.866-3.155,4.102-4.889c2.489-3.493,4.446-7.347,5.994-11.342
					c0.871-2.247,1.614-4.542,2.25-6.865c0.819-2.99,1.382-6.015,0.711-9.088c-0.625-2.861-1.97-5.368-3.155-8.021
					c-2.97-6.651-6.094-13.233-9.23-19.807C218.816,178.035,218.235,176.818,217.65,175.603z"/>
			</g>
			<path style="fill:none;stroke:#303030;stroke-width:1.5;stroke-linecap:round;stroke-linejoin:round;stroke-miterlimit:10;" d="
				M214.141,169.219c1.202,1.291,2.404,3.179,3.626,5.888"/>
			<path style="fill:none;stroke:#303030;stroke-width:1.5;stroke-linecap:round;stroke-linejoin:round;stroke-miterlimit:10;" d="
				M218.782,220.797c-1.918,3.262-4.378,8.158-7.081,11.362c-0.884,1.048-2.948,2.974-5.052,2.122"/>
			<path style="fill:none;stroke:#303030;stroke-width:1.5;stroke-linecap:round;stroke-linejoin:round;stroke-miterlimit:10;" d="
				M222.405,225.214c-3.623,7.484-8.871,14.346-11.726,13.641"/>
			
				<path style="fill:#FFFFFF;stroke:#303030;stroke-width:1.5;stroke-linecap:round;stroke-linejoin:round;stroke-miterlimit:10;" d="
				M230.962,124.754c-8.08,1.85-12.89,4.69-18.246,12.072c-5.357,7.382-9.142,13.251-9.142,13.251s1.419,5.388,7.619,11.212
				c6.199,5.824,12.595,7.93,12.595,7.93l7.174-9.677V124.754z"/>
		</g>
		<g id="Legs_00000101818000881376954730000009062218505526361001_">
			<path style="fill:#753C40;" d="M229.232,201.648c24.782,2.712,56.579-3.604,65.389-7.64
				c14.163,24.781,17.772,52.88,15.488,76.339c-3.114,31.982-8.453,44.589-9.27,50.732c-0.817,6.143,0.651,13.463-2.876,33.601
				c-4.087,23.329-13.053,53.108-13.053,53.108h-23.156c0,0-1.812-43.3-0.927-58.84c1.106-19.42,3.314-26.328,2.666-46.608
				c-0.777-24.334-3.154-30.41-3.154-30.41C244.659,257.904,229.232,242.54,229.232,201.648z"/>
			<path style="fill:#753C40;" d="M229.232,201.648c-8.724,26.116-15.618,41.879-14.138,74.539
				c1.047,23.117-1.445,40.368-6.189,52.715c-4.743,12.347-10.728,26.037-9.221,53.725c1.506,27.688,3.477,37.332,3.477,37.332
				l22.697,1.13c0,0,6.762-28.718,13.512-52.536c6.75-23.818,12.932-46.849,16.351-67.331c3.439-20.604,4.688-29.378,4.619-29.292
				c17.717-7.329,39.04-23.294,34.282-77.922C282.716,203.233,244.106,205.655,229.232,201.648z"/>
			
				<path style="fill:#FFFFFF;stroke:#303030;stroke-width:1.5;stroke-linecap:round;stroke-linejoin:round;stroke-miterlimit:10;" d="
				M261.117,411.215l-1.433-14.295c-0.141-1.408,1.175-2.474,2.438-1.977c3.04,1.194,7.129,2.007,13.553,2.257
				c5.336,0.207,10.256-0.809,12.77-1.515c1.443-0.405,2.743,1.013,2.316,2.516l-3.476,14.211L261.117,411.215z"/>
			
				<path style="fill:#FFFFFF;stroke:#303030;stroke-width:1.5;stroke-linecap:round;stroke-linejoin:round;stroke-miterlimit:10;" d="
				M199.413,416.199c0-2.923-0.678-14.996-0.878-20.004c-0.039-0.986,0.938-1.671,1.798-1.25c2.498,1.221,7.219,2.365,16.215,3.158
				c6.83,0.602,11.993-0.125,14.353-0.754c1.107-0.295,2.146,0.559,1.869,1.706l-4.185,17.341L199.413,416.199z"/>
			<g>
				<path style="fill:#F55571;" d="M195.697,427.233c-1.156,6.435-1.929,9.37-3.803,15.626c-0.863,2.88-2.785,10.776,6.278,13.765
					c4.546,1.499,7.275,1.892,13.394,1.972c6.758,0.088,12.423-0.516,16.014-2.936c4.435-2.989,3.996-7.495,3.664-9.449
					c-0.842-4.956-1.562-8.534-1.779-13.489c-0.327-7.488-0.065-12.653,0.449-18.189c0.091-0.985,0.201-1.982,0.043-2.958
					c-0.169-1.041-0.638-2.014-1.218-2.896c-3.113-4.733-9.188-6.72-14.853-6.716c-3.843,0.003-8.186,1.12-9.989,4.514
					c-0.64,1.204-1.112,2.48-1.896,3.596c-2.299,3.275-2.999-0.449-3.735-4.036c-1.927,1.113-1.532,4.903-1.42,6.374
					C197.215,417.262,196.243,424.195,195.697,427.233z"/>
				<path style="fill:none;stroke:#303030;stroke-width:1.5;stroke-linecap:round;stroke-linejoin:round;stroke-miterlimit:10;" d="
					M201.816,408.611c1.741,3.897,3.41,7.825,5.004,11.784c0.698,1.734,1.388,3.494,1.654,5.344c0.119,0.827,0.15,1.684-0.085,2.486
					c-0.241,0.821-0.747,1.538-1.305,2.187c-3.395,3.948-10.048,5.67-13.399,9.655c-2.588,3.077-3.306,6.542-2.573,10.494"/>
				<path style="fill:none;stroke:#303030;stroke-width:1.5;stroke-linecap:round;stroke-linejoin:round;stroke-miterlimit:10;" d="
					M227.467,410.208c-1.539,4.639-3.079,9.277-4.619,13.916c-0.671,2.023-1.348,4.197-0.762,6.246
					c0.421,1.472,1.444,2.683,2.418,3.865c2.752,3.339,5.867,5.774,7.123,11.282"/>
				
					<path style="fill:#FFFFFF;stroke:#303030;stroke-width:1.5;stroke-linecap:round;stroke-linejoin:round;stroke-miterlimit:10;" d="
					M231.627,445.517c0.332,1.954,0.389,7.154-4.047,10.143c-0.989,0.666-2.133,1.211-3.426,1.602
					c-11.193,3.386-20.569,1.341-25.981-0.638c-8.963-3.278-7.141-10.885-6.278-13.765c-5.264,12.608-4.393,21.984,20.11,21.984
					S233.43,452.33,231.627,445.517z"/>
				<path style="fill:none;stroke:#303030;stroke-width:1.5;stroke-linecap:round;stroke-linejoin:round;stroke-miterlimit:10;" d="
					M203.585,429.264c7.117-2.778,15.303-2.703,22.368,0.204"/>
				<path style="fill:none;stroke:#303030;stroke-width:1.5;stroke-linecap:round;stroke-linejoin:round;stroke-miterlimit:10;" d="
					M208.343,423.964c5.857-1.999,11.978-3.222,18.154-3.626"/>
				<path style="fill:none;stroke:#303030;stroke-width:1.5;stroke-linecap:round;stroke-linejoin:round;stroke-miterlimit:10;" d="
					M222.723,425.075c-6.185-3.017-12.768-5.215-19.524-6.52"/>
				<path style="fill:none;stroke:#303030;stroke-width:1.5;stroke-linecap:round;stroke-linejoin:round;stroke-miterlimit:10;" d="
					M205.427,415.983c8.348-1.469,15.745-2.586,24.039-2.635"/>
				<path style="fill:none;stroke:#303030;stroke-width:1.5;stroke-linecap:round;stroke-linejoin:round;stroke-miterlimit:10;" d="
					M225.5,416.617c-7.916-2.579-16.208-4.001-24.53-4.207"/>
				<path style="fill:none;stroke:#303030;stroke-width:1.5;stroke-linecap:round;stroke-linejoin:round;stroke-miterlimit:10;" d="
					M195.697,439.799c0.476,2.064,2.257,3.629,4.225,4.413c1.968,0.784,4.125,0.915,6.24,1.037
					c4.029,0.232,8.366,0.268,12.402,0.268c2.599,0,4.013-0.19,6.115-0.549c2.102-0.359,4.787-2.574,4.787-4.434"/>
			</g>
			<g>
				<path style="fill:#F55571;" d="M259.465,401.611c-2.863,0.241-3.278,3.513-3.224,6.499c0.119,6.493-0.307,9.32-1.137,13.367
					c-0.632,3.083-0.632,5.069-0.452,8.386c0,0,1.64,0.945,2.546,1.274c3.317,1.203,5.294,4.552,6.81,7.738
					c1.515,3.187,3,6.647,5.953,8.578c5.829,3.81,14.255,4.019,20.921,3.898c2.147-0.039,5.62-0.567,7.674-1.193
					c2.055-0.626,5.47-2.822,6.612-4.641c2.117-3.372-0.965-7.368-3.185-10.673c-2.22-3.305-5.352-5.918-7.567-9.227
					c-3.549-5.3-5.759-11.979-5.849-18.389c-0.037-2.632-1.007-5.479-3.498-5.872c-4.018-0.634-6.497-0.449-9.586-0.382
					c-2.858,0.062-6.071,0.896-7.424,3.414c-0.748,1.393-0.777,3.046-0.789,4.627c0.009-1.206-3.115-3.017-4.103-3.38
					c-0.272-0.1-3.373-0.815-3.333-0.429C259.835,405.203,259.465,401.611,259.465,401.611z"/>
				<path style="fill:none;stroke:#303030;stroke-width:1.5;stroke-linecap:round;stroke-linejoin:round;stroke-miterlimit:10;" d="
					M265.276,406.037c2.479,4.435,5.953,11.388,8.433,15.823c0.69,1.235,1.402,2.559,1.313,3.97
					c-0.127,2.023-1.814,3.538-3.283,4.934c-1.872,1.78-3.608,3.778-4.613,6.157c-1.006,2.379-1.204,5.198-0.051,7.51"/>
				<path style="fill:none;stroke:#303030;stroke-width:1.5;stroke-linecap:round;stroke-linejoin:round;stroke-miterlimit:10;" d="
					M286.172,406.669c0.319,2.528,1.113,5.698,1.67,7.773c0.844,3.148,1.707,6.342,3.372,9.144c1.963,3.305,4.934,5.884,7.995,8.209
					c0.961,0.73,1.966,1.475,2.546,2.533"/>
				<path style="fill:none;stroke:#303030;stroke-width:1.5;stroke-linecap:round;stroke-linejoin:round;stroke-miterlimit:10;" d="
					M269.231,433.624c1.744,2.244,5.854,3.927,8.574,4.75c5.978,1.809,13.49,1.11,17.611,0.589c3.748-0.474,7.542-2.258,6.569-4.119
					"/>
				
					<path style="fill:#FFFFFF;stroke:#303030;stroke-width:1.5;stroke-linecap:round;stroke-linejoin:round;stroke-miterlimit:10;" d="
					M282.886,451.105c-4.53-0.298-9.063-1.129-12.924-3.652c-2.954-1.93-4.438-5.391-5.953-8.578
					c-1.516-3.187-3.492-6.535-6.81-7.738c-0.905-0.328-1.944-0.522-2.546-1.274c-0.116,1.978-0.268,2.66-0.116,4.465
					c0.138,1.642,0.415,3.225,1.846,4.043c2.697,1.543,5.149,2.693,6.545,6.06c1.703,4.107,2.78,8.246,9.334,11.225
					c6.517,2.962,17.58,2.805,25.368,1.361c7.745-1.437,7.772-6.58,7.541-11.5c-1.077,1.716-3.239,3.581-5.149,4.203
					C292.893,452.042,286.71,451.356,282.886,451.105z"/>
				<path style="fill:none;stroke:#303030;stroke-width:1.5;stroke-linecap:round;stroke-linejoin:round;stroke-miterlimit:10;" d="
					M272.047,426.139c6.699-4.023,15.418-4.002,22.659-1.063"/>
				<path style="fill:none;stroke:#303030;stroke-width:1.5;stroke-linecap:round;stroke-linejoin:round;stroke-miterlimit:10;" d="
					M273.295,420.875c0.881-0.867,2.104-1.274,3.289-1.627c4.466-1.331,9.044-2.285,13.67-2.85"/>
				<path style="fill:none;stroke:#303030;stroke-width:1.5;stroke-linecap:round;stroke-linejoin:round;stroke-miterlimit:10;" d="
					M291.323,420.119c-7.836-2.672-15.265-3.318-23.543-3.501"/>
				<path style="fill:none;stroke:#303030;stroke-width:1.5;stroke-linecap:round;stroke-linejoin:round;stroke-miterlimit:10;" d="
					M269.737,414.215c5.735-2.328,12.561-3.877,18.708-4.592"/>
				<path style="fill:none;stroke:#303030;stroke-width:1.5;stroke-linecap:round;stroke-linejoin:round;stroke-miterlimit:10;" d="
					M287.548,413.348c-6.747-1.18-16.897-3.25-23.746-3.301"/>
			</g>
			<g>
				<path style="fill:#00826F;" d="M229.466,197.194c-6.398,12.413-19.514,42.903-20.901,75.957
					c-1.22,29.05-3.065,39.627-4.98,48.836c-2.092,10.061-9.421,25.165-7.888,59.523c8.862,5.673,34.362,7.167,41.674,3.526
					c4.781-13.535,8.057-28.719,13.511-50.866c5.408-21.96,10.666-47.859,10.666-47.859c0.432,13.388,0.548,28.335-0.1,35.013
					c-0.648,6.679-4.221,39.446-3.776,61.297c11.456,5.93,32.343,4.576,39.626,0.674c2.078-9.915,5.648-30.265,5.94-43.006
					c0.292-12.74,0.625-20.634,2.641-31.084c2.533-13.124,5.026-26.422,6.366-47.757c1.557-24.784-9.553-58.258-19.486-71.43
					C277.27,199.874,245.133,201.401,229.466,197.194z"/>
				<path style="fill:none;stroke:#303030;stroke-width:1.5;stroke-linecap:round;stroke-linejoin:round;stroke-miterlimit:10;" d="
					M257.673,382.623c11.456,5.93,32.343,4.576,39.626,0.674"/>
				<path style="fill:none;stroke:#FFFFFF;stroke-width:1.5;stroke-linecap:round;stroke-linejoin:round;stroke-miterlimit:10;" d="
					M257.873,371.825c11.922,6.171,33.658,4.762,41.237,0.701"/>
				<path style="fill:none;stroke:#303030;stroke-width:1.5;stroke-linecap:round;stroke-linejoin:round;stroke-miterlimit:10;" d="
					M195.697,381.511c8.862,5.673,34.362,7.167,41.674,3.526"/>
				<path style="fill:none;stroke:#FFFFFF;stroke-width:1.5;stroke-linecap:round;stroke-linejoin:round;stroke-miterlimit:10;" d="
					M195.877,369.993c9.645,5.674,37.396,7.167,45.354,3.526"/>
				<path style="fill:none;stroke:#303030;stroke-width:1.5;stroke-linecap:round;stroke-linejoin:round;stroke-miterlimit:10;" d="
					M263.2,244.752c3.545,27.88-5.99,59.59-7.766,70.008"/>
				<path style="fill:none;stroke:#FFFFFF;stroke-width:1.5;stroke-linecap:round;stroke-linejoin:round;stroke-miterlimit:10;" d="
					M226.402,203.118c20.157,5.967,54.611,2.702,69.923-8.182"/>
				<path style="fill:none;stroke:#FFFFFF;stroke-width:1.5;stroke-linecap:round;stroke-linejoin:round;stroke-miterlimit:10;" d="
					M271.108,196.055c0.719,3.096,1.25,5.767,1.823,8.893"/>
				<path style="fill:none;stroke:#FFFFFF;stroke-width:1.5;stroke-linecap:round;stroke-linejoin:round;stroke-miterlimit:10;" d="
					M250.303,198.135c-0.082,3.177-0.238,5.896-0.468,9.066"/>
			</g>
		</g>
		<g id="Head_00000168104979370041961620000001535995766201831074_">
			<g id="Hair_00000047765246428478846390000014478084021868139939_">
				<path style="fill:#303030;" d="M253.601,118.924c2.081,0.396,4.235,0.443,6.163-0.373c1.721-0.728,3.164-2.106,4.988-2.513
					c1.272-0.283,2.6-0.061,3.898-0.177c2.991-0.267,3.707-2.974,5.786-4.568c2.642-2.025,6.374-0.795,8.531-3.569
					c1.095-1.408,1.501-3.267,1.379-5.046c-0.101-1.486-0.539-3.018-0.07-4.431c0.383-1.154,1.309-2.027,2.133-2.921
					c2.015-2.188,3.647-5.08,3.155-8.013c-0.631-3.763-4.49-6.31-5.275-10.044c-0.194-0.921-0.188-1.873-0.319-2.805
					c-0.697-4.964-5.307-8.258-10.061-8.655c-0.891-5.253-4.488-10.618-9.867-12.003c-3.103-0.799-6.532-0.234-9.213,1.519
					c-0.518,0.339-1.023,0.726-1.621,0.885c-1.245,0.331-2.495-0.393-3.635-0.995c-2.539-1.34-5.4-2.197-8.264-2.001
					c-2.864,0.196-5.721,1.546-7.349,3.911c-0.999,1.452-1.491,3.183-1.967,4.88c-2.972-1.12-6.694,0.552-7.832,3.517
					c-0.478,1.247-0.547,2.648-1.211,3.807s-2.334,1.936-3.332,1.049c-0.195,2.753,2.577,5.306,5.305,4.887
					c-2.693,1.467-4.751,4.059-5.569,7.015c-1.013,3.659,0.213,7.027,2.949,9.576c0.965,0.899,2.177,1.838,2.803,3.025
					c0.552,1.047,0.354,2.303,0.06,3.413c-0.624,2.361-2.146,4.64-1.811,7.173c0.2,1.517,1.098,2.871,2.221,3.911
					c1.123,1.039,2.466,1.803,3.797,2.558c-0.722-1.869-0.441-4.093,0.723-5.724c-0.327,3.216,1.88,6.217,4.561,8.023
					c1.409,0.949,2.988,1.672,4.66,1.973c1.653,0.297,3.352,0.178,5.021,0.359c2.624,0.284,5.105,1.298,7.654,1.984
					C252.52,118.693,253.058,118.82,253.601,118.924z"/>
				<path style="fill:none;stroke:#303030;stroke-width:1.5;stroke-linecap:round;stroke-linejoin:round;stroke-miterlimit:10;" d="
					M271.815,65.758c3.28-2.055,7.946-1.537,10.694,1.188c2.748,2.725,3.305,7.388,1.277,10.684c3.492,1.149,6.334,3.511,6.6,7.446
					c0.169,2.499-0.917,5.052-2.835,6.663"/>
				
					<ellipse transform="matrix(1 -0.0015 0.0015 1 -0.1315 0.3974)" style="fill:#303030;" cx="256.833" cy="85.198" rx="23.405" ry="22.354"/>
			</g>
			<path style="fill:#AD6163;" d="M261.113,69.218c15.218,4.21,12.413,21.249,12.413,21.249c-1.029,1.996-0.904,2.17-1.415,4.341
				c1.696-2.251,4.254-4.054,7.147-4.291c2.892-0.237,6.018,1.428,6.768,4.106c0.742,2.648-1.027,5.541-3.579,6.795
				c-2.552,1.254-6.057,1.35-9.224-0.257l-0.004-0.002c-1.176,2.648-3.685,5.299-7.275,7.054l1.212,11.214l19.592,4.968
				c0,0-7.878,19.688-34.453,18.492c-26.575-1.196-19.355-18.528-19.355-18.528l15.962-3.777l1.036-9.626
				c-4.852-0.477-18.963-4.844-16.643-23.307c0.466-3.707,1.685-7.112,3.395-10.049l0.001,0
				C243.926,65.715,257.488,67.837,261.113,69.218z"/>
			<path style="fill:none;stroke:#303030;stroke-width:1.5;stroke-linecap:round;stroke-linejoin:round;stroke-miterlimit:10;" d="
				M247.457,96.435c1.621,0.746,3.392,1.209,5.176,1.178c1.784-0.031,3.582-0.578,4.983-1.683"/>
			<g>
				<path style="fill:#00826F;" d="M274.725,101.46c0.052,0.947,0.862,1.673,1.809,1.62c0.947-0.052,1.673-0.862,1.621-1.809
					c-0.052-0.947-0.862-1.673-1.809-1.62C275.398,99.703,274.673,100.513,274.725,101.46z"/>
				<path style="fill:none;stroke:#FFFFFF;stroke-width:1.5;stroke-linecap:round;stroke-linejoin:round;stroke-miterlimit:10;" d="
					M281.224,91.345c-0.032-0.918,0.612-1.817,1.491-2.082"/>
				<path style="fill:none;stroke:#FFFFFF;stroke-width:1.5;stroke-linecap:round;stroke-linejoin:round;stroke-miterlimit:10;" d="
					M283.97,92.502c0.072-0.982,1.068-1.504,1.796-1.526"/>
			</g>
			<g>
				<path style="fill:#303030;" d="M260.099,109.993c0,0-4.845,1.72-10.163,0.962l-0.293,2.724
					C249.643,113.679,255.786,114.029,260.099,109.993z"/>
				<path style="fill:none;stroke:#303030;stroke-width:1.5;stroke-linecap:round;stroke-linejoin:round;stroke-miterlimit:10;" d="
					M251.355,79.854c-0.373,8.28-4.007,7.966-3.374,10.936c0.373,1.752,2.609,1.853,3.89,1.532"/>
				<g>
					<path style="fill:#00826F;" d="M247.564,86.174c0.577-2.512-2.352-5.752-6.744-5.353c-4.4,0.4-4.873,2.928-3.719,3.984
						c1.154,1.057,1.541,0.033,2.933-0.727C241.426,83.318,246.33,83.491,247.564,86.174z"/>
					<g>
						<path style="fill:#FFFFFF;" d="M247.272,86.579c-0.348-1.799-1.883-3.308-3.746-3.683c-1.863-0.375-4.671,0.189-5.479,2.761
							C238.429,88.388,244.3,89.894,247.272,86.579z"/>
						<path style="fill:#303030;" d="M241.208,86.877c0.47,1.33,1.981,2.018,3.377,1.536c1.395-0.482,2.146-1.951,1.676-3.281
							c-0.47-1.33-1.981-2.018-3.377-1.536C241.489,84.078,240.738,85.547,241.208,86.877z"/>
						<polygon style="fill:#FFFFFF;" points="246.452,85.081 243.734,86.004 246.646,86.54 						"/>
						
							<path style="fill:none;stroke:#303030;stroke-width:1.5;stroke-linecap:round;stroke-linejoin:round;stroke-miterlimit:10;" d="
							M238.047,85.657c0.808-2.571,3.616-3.136,5.479-2.761c1.863,0.375,3.398,1.884,3.746,3.683"/>
						
							<path style="fill:none;stroke:#303030;stroke-width:1.5;stroke-linecap:round;stroke-linejoin:round;stroke-miterlimit:10;" d="
							M236.571,83.804c0.181,0.586,0.744,1.034,1.356,1.08"/>
					</g>
					
						<path style="fill:none;stroke:#303030;stroke-width:1.5;stroke-linecap:round;stroke-linejoin:round;stroke-miterlimit:10;" d="
						M246.251,74.496c-3.031-0.365-6.293,1.084-7.986,2.694"/>
				</g>
				<g>
					<path style="fill:#00826F;" d="M255.436,85.612c-0.105-2.575,3.37-5.222,7.613-4.022c4.251,1.202,4.252,3.774,2.923,4.6
						c-1.328,0.827-1.521-0.251-2.749-1.254C261.995,83.934,257.142,83.202,255.436,85.612z"/>
					<g>
						<path style="fill:#FFFFFF;" d="M264.944,87.369c-0.348-1.799-1.884-3.308-3.747-3.683c-1.863-0.375-4.671,0.189-5.479,2.761
							C256.101,89.178,261.972,90.684,264.944,87.369z"/>
						<path style="fill:#303030;" d="M258.88,87.667c0.47,1.33,1.981,2.018,3.377,1.536c1.395-0.482,2.146-1.951,1.676-3.281
							c-0.47-1.33-1.982-2.018-3.377-1.536C259.16,84.868,258.41,86.337,258.88,87.667z"/>
						<polygon style="fill:#FFFFFF;" points="264.124,85.871 261.406,86.794 264.318,87.33 						"/>
						
							<path style="fill:none;stroke:#303030;stroke-width:1.5;stroke-linecap:round;stroke-linejoin:round;stroke-miterlimit:10;" d="
							M255.719,86.447c0.808-2.571,3.615-3.135,5.479-2.761c1.863,0.375,3.398,1.884,3.747,3.683"/>
					</g>
					
						<path style="fill:none;stroke:#303030;stroke-width:1.5;stroke-linecap:round;stroke-linejoin:round;stroke-miterlimit:10;" d="
						M266.582,85.627c-0.419,0.609-1.2,0.947-1.931,0.836"/>
					
						<path style="fill:none;stroke:#303030;stroke-width:1.5;stroke-linecap:round;stroke-linejoin:round;stroke-miterlimit:10;" d="
						M258.23,76.674c2.426-0.859,7.559,0.058,9.333,2.718"/>
				</g>
				<g>
					
						<path style="fill:none;stroke:#303030;stroke-width:1.5;stroke-linecap:round;stroke-linejoin:round;stroke-miterlimit:10;" d="
						M282.474,94.5c-0.677-0.447-2.32-0.758-3.955-0.27c-1.635,0.487-2.965,1.816-3.402,3.398"/>
					
						<path style="fill:none;stroke:#303030;stroke-width:1.5;stroke-linecap:round;stroke-linejoin:round;stroke-miterlimit:10;" d="
						M279.713,96.366c-0.499-0.326-2.246-1.141-3.9-0.187"/>
				</g>
			</g>
			<path style="fill:#303030;" d="M231.563,78.457c3.108,2.595,8.125,2.469,10.913-0.567c0.412-0.449,0.776-0.952,1.271-1.307
				c1.113-0.798,2.621-0.682,3.973-0.463c1.352,0.219,2.795,0.495,4.046-0.063c1.279-0.571,2.046-1.886,2.609-3.168
				c0.601-1.371,1.195-3.686,2.872-3.976c1.289-0.223,2.635-0.099,3.861,0.356c0,0-3.333-8.339-17.374-4.125
				C229.693,69.355,231.563,78.457,231.563,78.457z"/>
		</g>
		<g id="Arm_00000116216808473744726320000001123309170029502140_">
			<path style="fill:#AD6163;" d="M382.129,109.752c0.59,8.94-4.423,13.125-14.401,21.226c-4.684,3.802-10.114,8.099-15.56,11.694
				c-8.427,5.563-11.997,6.534-16.418,7.23c-7.343,1.155-41.709,4.128-41.709,4.128s-10.462-17.885-1.071-29.257
				c20.013,1.64,43.585,2.91,43.585,2.91l37.005-20.183L382.129,109.752z"/>
			<g id="Arm_00000049196886758037874270000018281923890298214551_">
				
					<path id="Flash" style="fill:none;stroke:#FF95FB;stroke-width:1.5;stroke-linecap:round;stroke-linejoin:round;stroke-miterlimit:10;" d="
					M347.78,95.323c-3.829-8.599-10.293-9.278-15.825-1.662c5.532-7.616,2.888-13.553-6.473-14.536
					c9.361,0.983,13.181-4.275,9.352-12.874c3.829,8.599,10.293,9.278,15.825,1.662c-5.532,7.616-2.888,13.553,6.473,14.536
					C347.771,81.466,343.951,86.724,347.78,95.323z"/>
				<g id="Mobile_00000109027937279005608420000017163574150911753912_">
					<path style="fill:#F55571;" d="M345.753,122.006l19.201-1.258c1.971-0.129,3.409-1.851,3.212-3.846l-3.708-37.439
						c-0.198-1.995-1.956-3.507-3.927-3.378l-19.201,1.258c-1.971,0.129-3.409,1.851-3.212,3.846l3.708,37.439
						C342.024,120.623,343.782,122.135,345.753,122.006z"/>
					<path style="fill:#303030;" d="M349.743,121.745l19.201-1.258c1.971-0.129,3.409-1.851,3.211-3.846l-3.708-37.439
						c-0.198-1.995-1.956-3.507-3.927-3.378l-19.201,1.258c-1.971,0.129-3.409,1.851-3.211,3.846l3.708,37.439
						C346.014,120.361,347.772,121.874,349.743,121.745z"/>
					<path style="fill:#00826F;" d="M346.576,89.638l3.953-0.259c0.289-0.019,0.501-0.272,0.472-0.565l-0.832-8.414
						c-0.029-0.293-0.287-0.515-0.577-0.496l-3.953,0.259c-0.289,0.019-0.501,0.272-0.472,0.565L346,89.142
						C346.029,89.435,346.287,89.657,346.576,89.638z"/>
					<path style="fill:#FFFFFF;" d="M346.454,82.642c0.089,0.753,0.797,1.321,1.581,1.27c0.785-0.051,1.349-0.703,1.26-1.456
						c-0.089-0.753-0.797-1.321-1.581-1.27C346.93,81.238,346.365,81.889,346.454,82.642z"/>
					<path style="fill:#FFFFFF;" d="M346.873,87.087c0.089,0.753,0.797,1.321,1.581,1.27c0.785-0.051,1.349-0.703,1.26-1.456
						c-0.089-0.753-0.797-1.321-1.581-1.27C347.349,85.683,346.784,86.334,346.873,87.087z"/>
				</g>
				<g id="Arm_00000162319335570265730230000012267779983098353546_">
					<path style="fill:#AD6163;" d="M381.263,114.633c-0.629,1.438-1.594,2.682-2.888,3.5c-2.322,1.467-4.581,2.168-7.253,2.589
						c-2.846,0.449-5.517,1.613-8.276,2.396c-0.701,0.199-1.609,0.314-2.312,0.047c-0.876-0.333-1.302-1.401-1.152-2.326
						c0.149-0.925,1.049-1.93,1.853-2.411c2.823-1.691,5.525-2.523,7.813-3.466c-1.868-0.428-3.828-0.223-5.101,0.014
						c-1.088,0.202-4.988,0.8-6.063,1.092c-1.154,0.313-2.409,0.759-3.598,0.322c-0.829-0.305-1.461-1.073-1.635-1.939
						c-0.174-0.866,0.102-1.802,0.691-2.46c-0.672,0.006-1.284-0.489-1.542-1.11c-0.581-1.401,0.364-2.649,1.416-3.493
						c2.741-2.199,9.117-3.576,12.454-4.445c-0.797-0.241-2.782-0.378-4.551-0.179c-1.251,0.141-3.161,0.267-4.299-0.028
						c-2.215-0.575-3.138-2.517-1.074-3.812c1.122-0.704,4.961-1.763,6.261-1.96c3.06-0.463,7.222-0.84,10.219-0.056
						c5.201,1.362,7.56,3.883,9.504,10.443C382.413,109.65,382.25,112.379,381.263,114.633z"/>
					
						<path style="fill:none;stroke:#303030;stroke-width:1.5;stroke-linecap:round;stroke-linejoin:round;stroke-miterlimit:10;" d="
						M352.431,112.339c5.057-2.568,10.77-3.54,17.253-3.561"/>
					
						<path style="fill:none;stroke:#303030;stroke-width:1.5;stroke-linecap:round;stroke-linejoin:round;stroke-miterlimit:10;" d="
						M378.376,118.133c-2.322,1.467-4.581,2.168-7.253,2.589c-2.846,0.449-5.517,1.613-8.276,2.396
						c-0.981,0.279-4.482,0.562-4.167-2.589"/>
					
						<path style="fill:none;stroke:#303030;stroke-width:1.5;stroke-linecap:round;stroke-linejoin:round;stroke-miterlimit:10;" d="
						M369.834,115.081c-3.526-0.26-6.665,0.603-10.254,1.503"/>
					
						<path style="fill:none;stroke:#303030;stroke-width:1.5;stroke-linecap:round;stroke-linejoin:round;stroke-miterlimit:10;" d="
						M369.053,103.157c-2.264-0.187-6.501-0.06-9.027,0.44"/>
				</g>
			</g>
		</g>
		<g id="Chest">
			
				<path style="fill:#FFFFFF;stroke:#303030;stroke-width:1.5;stroke-linecap:round;stroke-linejoin:round;stroke-miterlimit:10;" d="
				M294.329,163.821c4.458-0.896,18.064-4.769,18.064-4.769s-1.657-9.911-1.251-18.723c0.473-10.271,4.794-13.89,4.794-13.89
				s-18.379-3.16-26.879-4.199c-6.472-0.791-17.949-1.535-17.949-1.535s-5.409,8.89-15.867,8.519
				c-10.457-0.371-10.074-7.811-10.074-7.811l-14.204,3.341c0,0-10.022,13.359-9.849,26.158c0.2,14.819,11.154,19.337,7.033,31.495
				c-5.332,15.728-4.162,18.84-1.743,25.756c3.964,11.332,15.955,19.916,35.917,18.528c19.962-1.389,34.062-23.811,32.564-33.572
				c0,0,6.779,12.038,9.514,20.711c2.701-9.642-2.532-20.515-6.897-30.948C292.417,170.732,293.748,165.675,294.329,163.821z"/>
			<path style="fill:none;stroke:#303030;stroke-width:1.5;stroke-linecap:round;stroke-linejoin:round;stroke-miterlimit:10;" d="
				M282.84,130.577c-3.127,11.582,1.492,27.652,11.49,33.244"/>
		</g>
	</g>
</g>
</svg>
